<?xml version="1.0" encoding="UTF-8" standalone="no"?>
<!-- Created with Inkscape (http://www.inkscape.org/) -->

<svg
   xmlns:dc="http://purl.org/dc/elements/1.1/"
   xmlns:cc="http://creativecommons.org/ns#"
   xmlns:rdf="http://www.w3.org/1999/02/22-rdf-syntax-ns#"
   xmlns:svg="http://www.w3.org/2000/svg"
   xmlns="http://www.w3.org/2000/svg"
   xmlns:sodipodi="http://sodipodi.sourceforge.net/DTD/sodipodi-0.dtd"
   xmlns:inkscape="http://www.inkscape.org/namespaces/inkscape"
   id="svg2"
   version="1.1"
   inkscape:version="0.91 r13725"
   xml:space="preserve"
   width="563.94232"
   height="430.37772"
   viewBox="0 0 563.94232 430.37771"
   sodipodi:docname="features_why.svg"
   inkscape:export-filename="/home/simen/Dropbox/phd/presentations/presentations/incf/figures/features_why_3.png"
   inkscape:export-xdpi="300"
   inkscape:export-ydpi="300"><metadata
     id="metadata8"><rdf:RDF><cc:Work
         rdf:about=""><dc:format>image/svg+xml</dc:format><dc:type
           rdf:resource="http://purl.org/dc/dcmitype/StillImage" /><dc:title /></cc:Work></rdf:RDF></metadata><defs
     id="defs6"><marker
       inkscape:stockid="StopL"
       orient="auto"
       refY="0"
       refX="0"
       id="StopL"
       style="overflow:visible"
       inkscape:isstock="true"><path
         id="path4463"
         d="M 0,5.65 0,-5.65"
         style="fill:none;fill-opacity:0.75;fill-rule:evenodd;stroke:#000000;stroke-width:1pt;stroke-opacity:1"
         transform="scale(0.8,0.8)"
         inkscape:connector-curvature="0" /></marker><marker
       inkscape:stockid="StopM"
       orient="auto"
       refY="0"
       refX="0"
       id="marker4570"
       style="overflow:visible"
       inkscape:isstock="true"><path
         id="path4572"
         d="M 0,5.65 0,-5.65"
         style="fill:none;fill-opacity:0.75;fill-rule:evenodd;stroke:#000000;stroke-width:1pt;stroke-opacity:1"
         transform="scale(0.4,0.4)"
         inkscape:connector-curvature="0" /></marker><marker
       inkscape:stockid="StopM"
       orient="auto"
       refY="0"
       refX="0"
       id="StopM"
       style="overflow:visible"
       inkscape:isstock="true"><path
         id="path4466"
         d="M 0,5.65 0,-5.65"
         style="fill:none;fill-opacity:0.75;fill-rule:evenodd;stroke:#000000;stroke-width:1pt;stroke-opacity:1"
         transform="scale(0.4,0.4)"
         inkscape:connector-curvature="0" /></marker><clipPath
       clipPathUnits="userSpaceOnUse"
       id="clipPath20"><path
         d="m 63.72,42.0552 395.064,0 0,294.3864 -395.064,0 0,-294.3864 z"
         id="path22"
         inkscape:connector-curvature="0" /></clipPath><clipPath
       clipPathUnits="userSpaceOnUse"
       id="clipPath38"><path
         d="m 63.72,42.0552 395.064,0 0,294.3864 -395.064,0 0,-294.3864 z"
         id="path40"
         inkscape:connector-curvature="0" /></clipPath><clipPath
       clipPathUnits="userSpaceOnUse"
       id="clipPath56"><path
         d="m 63.72,42.0552 395.064,0 0,294.3864 -395.064,0 0,-294.3864 z"
         id="path58"
         inkscape:connector-curvature="0" /></clipPath><clipPath
       clipPathUnits="userSpaceOnUse"
       id="clipPath74"><path
         d="m 63.72,42.0552 395.064,0 0,294.3864 -395.064,0 0,-294.3864 z"
         id="path76"
         inkscape:connector-curvature="0" /></clipPath><clipPath
       clipPathUnits="userSpaceOnUse"
       id="clipPath92"><path
         d="m 63.72,42.0552 395.064,0 0,294.3864 -395.064,0 0,-294.3864 z"
         id="path94"
         inkscape:connector-curvature="0" /></clipPath><clipPath
       clipPathUnits="userSpaceOnUse"
       id="clipPath114"><path
         d="m 63.72,42.0552 395.064,0 0,294.3864 -395.064,0 0,-294.3864 z"
         id="path116"
         inkscape:connector-curvature="0" /></clipPath><clipPath
       clipPathUnits="userSpaceOnUse"
       id="clipPath136"><path
         d="m -770,-347 2876,0 0,1457 -2876,0 0,-1457 z"
         id="path138"
         inkscape:connector-curvature="0" /></clipPath><clipPath
       clipPathUnits="userSpaceOnUse"
       id="clipPath146"><path
         d="m 63.72,42.0552 395.064,0 0,294.3864 -395.064,0 0,-294.3864 z"
         id="path148"
         inkscape:connector-curvature="0" /></clipPath><clipPath
       clipPathUnits="userSpaceOnUse"
       id="clipPath168"><path
         d="m -770,-347 2876,0 0,1457 -2876,0 0,-1457 z"
         id="path170"
         inkscape:connector-curvature="0" /></clipPath><clipPath
       clipPathUnits="userSpaceOnUse"
       id="clipPath178"><path
         d="m 63.72,42.0552 395.064,0 0,294.3864 -395.064,0 0,-294.3864 z"
         id="path180"
         inkscape:connector-curvature="0" /></clipPath><clipPath
       clipPathUnits="userSpaceOnUse"
       id="clipPath200"><path
         d="m -770,-347 2876,0 0,1457 -2876,0 0,-1457 z"
         id="path202"
         inkscape:connector-curvature="0" /></clipPath><clipPath
       clipPathUnits="userSpaceOnUse"
       id="clipPath210"><path
         d="m 63.72,42.0552 395.064,0 0,294.3864 -395.064,0 0,-294.3864 z"
         id="path212"
         inkscape:connector-curvature="0" /></clipPath><clipPath
       clipPathUnits="userSpaceOnUse"
       id="clipPath232"><path
         d="m -770,-347 2876,0 0,1457 -2876,0 0,-1457 z"
         id="path234"
         inkscape:connector-curvature="0" /></clipPath><clipPath
       clipPathUnits="userSpaceOnUse"
       id="clipPath242"><path
         d="m 63.72,42.0552 395.064,0 0,294.3864 -395.064,0 0,-294.3864 z"
         id="path244"
         inkscape:connector-curvature="0" /></clipPath><clipPath
       clipPathUnits="userSpaceOnUse"
       id="clipPath260"><path
         d="m 63.72,42.0552 395.064,0 0,294.3864 -395.064,0 0,-294.3864 z"
         id="path262"
         inkscape:connector-curvature="0" /></clipPath><clipPath
       clipPathUnits="userSpaceOnUse"
       id="clipPath278"><path
         d="m 63.72,42.0552 395.064,0 0,294.3864 -395.064,0 0,-294.3864 z"
         id="path280"
         inkscape:connector-curvature="0" /></clipPath><clipPath
       clipPathUnits="userSpaceOnUse"
       id="clipPath304"><path
         d="m 63.72,42.0552 395.064,0 0,294.3864 -395.064,0 0,-294.3864 z"
         id="path306"
         inkscape:connector-curvature="0" /></clipPath><clipPath
       clipPathUnits="userSpaceOnUse"
       id="clipPath314"><path
         d="m 63.72,42.0552 395.064,0 0,294.3864 -395.064,0 0,-294.3864 z"
         id="path316"
         inkscape:connector-curvature="0" /></clipPath><clipPath
       clipPathUnits="userSpaceOnUse"
       id="clipPath324"><path
         d="m 63.72,42.0552 395.064,0 0,294.3864 -395.064,0 0,-294.3864 z"
         id="path326"
         inkscape:connector-curvature="0" /></clipPath><clipPath
       clipPathUnits="userSpaceOnUse"
       id="clipPath334"><path
         d="m 63.72,42.0552 395.064,0 0,294.3864 -395.064,0 0,-294.3864 z"
         id="path336"
         inkscape:connector-curvature="0" /></clipPath><clipPath
       clipPathUnits="userSpaceOnUse"
       id="clipPath318"><path
         d="m 63.72,42.0552 395.064,0 0,294.3864 -395.064,0 0,-294.3864 z"
         id="path320"
         inkscape:connector-curvature="0" /></clipPath><clipPath
       clipPathUnits="userSpaceOnUse"
       id="clipPath318-5"><path
         d="m 63.72,42.0552 395.064,0 0,294.3864 -395.064,0 0,-294.3864 z"
         id="path320-5"
         inkscape:connector-curvature="0" /></clipPath><clipPath
       clipPathUnits="userSpaceOnUse"
       id="clipPath334-2"><path
         d="m 63.72,42.0552 395.064,0 0,294.3864 -395.064,0 0,-294.3864 z"
         id="path336-9"
         inkscape:connector-curvature="0" /></clipPath><filter
       inkscape:collect="always"
       style="color-interpolation-filters:sRGB"
       id="filter39605-3-0"><feBlend
         inkscape:collect="always"
         mode="darken"
         in2="BackgroundImage"
         id="feBlend39607-5-6" /></filter><clipPath
       clipPathUnits="userSpaceOnUse"
       id="clipPath64"><path
         d="m -770,-347 2876,0 0,1457 -2876,0 0,-1457 z"
         id="path66"
         inkscape:connector-curvature="0" /></clipPath><clipPath
       clipPathUnits="userSpaceOnUse"
       id="clipPath84"><path
         d="m -770,-347 2876,0 0,1457 -2876,0 0,-1457 z"
         id="path86"
         inkscape:connector-curvature="0" /></clipPath><clipPath
       clipPathUnits="userSpaceOnUse"
       id="clipPath104"><path
         d="m -770,-347 2876,0 0,1457 -2876,0 0,-1457 z"
         id="path106"
         inkscape:connector-curvature="0" /></clipPath><clipPath
       clipPathUnits="userSpaceOnUse"
       id="clipPath124"><path
         d="m -770,-347 2876,0 0,1457 -2876,0 0,-1457 z"
         id="path126"
         inkscape:connector-curvature="0" /></clipPath><clipPath
       clipPathUnits="userSpaceOnUse"
       id="clipPath160"><path
         d="m 63.72,42.0552 395.064,0 0,294.3864 -395.064,0 0,-294.3864 z"
         id="path162"
         inkscape:connector-curvature="0" /></clipPath><clipPath
       clipPathUnits="userSpaceOnUse"
       id="clipPath170"><path
         d="m 63.72,42.0552 395.064,0 0,294.3864 -395.064,0 0,-294.3864 z"
         id="path172-3"
         inkscape:connector-curvature="0" /></clipPath><clipPath
       clipPathUnits="userSpaceOnUse"
       id="clipPath180"><path
         d="m 63.72,42.0552 395.064,0 0,294.3864 -395.064,0 0,-294.3864 z"
         id="path182"
         inkscape:connector-curvature="0" /></clipPath><clipPath
       clipPathUnits="userSpaceOnUse"
       id="clipPath98"><path
         d="m 63.72,42.0552 395.064,0 0,294.3864 -395.064,0 0,-294.3864 z"
         id="path100-5"
         inkscape:connector-curvature="0" /></clipPath><clipPath
       clipPathUnits="userSpaceOnUse"
       id="clipPath108"><path
         d="m 63.72,42.0552 395.064,0 0,294.3864 -395.064,0 0,-294.3864 z"
         id="path110"
         inkscape:connector-curvature="0" /></clipPath><clipPath
       clipPathUnits="userSpaceOnUse"
       id="clipPath118"><path
         d="m 63.72,42.0552 395.064,0 0,294.3864 -395.064,0 0,-294.3864 z"
         id="path120"
         inkscape:connector-curvature="0" /></clipPath><clipPath
       clipPathUnits="userSpaceOnUse"
       id="clipPath4598"><path
         d="m 63.72,42.0552 395.064,0 0,294.3864 -395.064,0 0,-294.3864 z"
         id="path4600"
         inkscape:connector-curvature="0" /></clipPath><clipPath
       clipPathUnits="userSpaceOnUse"
       id="clipPath4608"><path
         d="m 63.72,42.0552 395.064,0 0,294.3864 -395.064,0 0,-294.3864 z"
         id="path4610"
         inkscape:connector-curvature="0" /></clipPath><clipPath
       clipPathUnits="userSpaceOnUse"
       id="clipPath4618"><path
         d="m 63.72,42.0552 395.064,0 0,294.3864 -395.064,0 0,-294.3864 z"
         id="path4620"
         inkscape:connector-curvature="0" /></clipPath><clipPath
       clipPathUnits="userSpaceOnUse"
       id="clipPath6688"><path
         d="m -770,-347 2876,0 0,1457 -2876,0 0,-1457 z"
         id="path6690"
         inkscape:connector-curvature="0" /></clipPath><clipPath
       clipPathUnits="userSpaceOnUse"
       id="clipPath6708"><path
         d="m -770,-347 2876,0 0,1457 -2876,0 0,-1457 z"
         id="path6710"
         inkscape:connector-curvature="0" /></clipPath><clipPath
       clipPathUnits="userSpaceOnUse"
       id="clipPath6728"><path
         d="m -770,-347 2876,0 0,1457 -2876,0 0,-1457 z"
         id="path6730"
         inkscape:connector-curvature="0" /></clipPath><clipPath
       clipPathUnits="userSpaceOnUse"
       id="clipPath6748"><path
         d="m -770,-347 2876,0 0,1457 -2876,0 0,-1457 z"
         id="path6750"
         inkscape:connector-curvature="0" /></clipPath><clipPath
       clipPathUnits="userSpaceOnUse"
       id="clipPath6784"><path
         d="m 63.72,42.0552 395.064,0 0,294.3864 -395.064,0 0,-294.3864 z"
         id="path6786"
         inkscape:connector-curvature="0" /></clipPath><clipPath
       clipPathUnits="userSpaceOnUse"
       id="clipPath6794"><path
         d="m 63.72,42.0552 395.064,0 0,294.3864 -395.064,0 0,-294.3864 z"
         id="path6796"
         inkscape:connector-curvature="0" /></clipPath><clipPath
       clipPathUnits="userSpaceOnUse"
       id="clipPath6804"><path
         d="m 63.72,42.0552 395.064,0 0,294.3864 -395.064,0 0,-294.3864 z"
         id="path6806"
         inkscape:connector-curvature="0" /></clipPath></defs><sodipodi:namedview
     pagecolor="#ffffff"
     bordercolor="#666666"
     borderopacity="1"
     objecttolerance="10"
     gridtolerance="10"
     guidetolerance="10"
     inkscape:pageopacity="0"
     inkscape:pageshadow="2"
     inkscape:window-width="1920"
     inkscape:window-height="1056"
     id="namedview4"
     showgrid="false"
     inkscape:zoom="0.76895335"
     inkscape:cx="80.715958"
     inkscape:cy="29.524806"
     inkscape:window-x="0"
     inkscape:window-y="24"
     inkscape:window-maximized="1"
     inkscape:current-layer="g7772"
     fit-margin-top="0"
     fit-margin-left="0"
     fit-margin-right="0"
     fit-margin-bottom="0" /><g
     inkscape:groupmode="layer"
     id="layer5"
     inkscape:label="hh"
     style="display:inline"
     transform="translate(16.528371,0)"><g
       style="display:inline"
       id="g7623"
       transform="matrix(1.25,0,0,-1.25,-261.64221,377.41802)"><g
         id="g7698"><g
           id="g7772"
           transform="translate(-407.71789,45.811462)"><text
             y="614.44568"
             x="7.1321459"
             transform="matrix(0,1,1,0,1.2e-6,0)"
             style="font-variant:normal;font-weight:normal;font-size:14px;font-family:'DejaVu Serif';-inkscape-font-specification:DejaVuSerif;writing-mode:lr-tb;display:inline;fill:#000000;fill-opacity:1;fill-rule:nonzero;stroke:none"
             id="text6772"><tspan
               x="7.1321459 21.468157 29.756144 43.028145 51.988159 58.680145 67.024162 76.040146 84.32814 88.780151 97.740158 106.16815 111.79616 120.08415 129.10014 134.72815 139.20816 147.55215 152.03215 156.48416 161.94414 175.21616 183.12614"
               y="614.44568"
               sodipodi:role="line"
               id="tspan6774">Membrane potential (mv)</tspan></text>
<path
             inkscape:connector-curvature="0"
             id="path6640"
             style="fill:#999999;fill-opacity:1;fill-rule:nonzero;stroke:#999999;stroke-width:0.80000001;stroke-linecap:butt;stroke-linejoin:round;stroke-miterlimit:10;stroke-dasharray:none;stroke-opacity:1"
             d="m 659.39879,-49.311047 0,-5" /><text
             transform="scale(1,-1)"
             id="text6642"
             style="font-variant:normal;font-weight:normal;font-size:14px;font-family:'DejaVu Serif';-inkscape-font-specification:DejaVuSerif;writing-mode:lr-tb;fill:#000000;fill-opacity:1;fill-rule:nonzero;stroke:none"
             x="654.94568"
             y="68.451668"><tspan
               id="tspan6644"
               y="68.451668"
               x="654.94568">0</tspan></text>
<path
             inkscape:connector-curvature="0"
             id="path6646"
             style="fill:#999999;fill-opacity:1;fill-rule:nonzero;stroke:#999999;stroke-width:0.80000001;stroke-linecap:butt;stroke-linejoin:round;stroke-miterlimit:10;stroke-dasharray:none;stroke-opacity:1"
             d="m 745.28227,-49.311047 0,-5" /><text
             transform="scale(1,-1)"
             id="text6648"
             style="font-variant:normal;font-weight:normal;font-size:14px;font-family:'DejaVu Serif';-inkscape-font-specification:DejaVuSerif;writing-mode:lr-tb;fill:#000000;fill-opacity:1;fill-rule:nonzero;stroke:none"
             x="740.82916"
             y="68.451668"><tspan
               id="tspan6650"
               y="68.451668"
               x="740.82916">5</tspan></text>
<path
             inkscape:connector-curvature="0"
             id="path6652"
             style="fill:#999999;fill-opacity:1;fill-rule:nonzero;stroke:#999999;stroke-width:0.80000001;stroke-linecap:butt;stroke-linejoin:round;stroke-miterlimit:10;stroke-dasharray:none;stroke-opacity:1"
             d="m 831.16575,-49.311047 0,-5" /><text
             transform="scale(1,-1)"
             id="text6654"
             style="font-variant:normal;font-weight:normal;font-size:14px;font-family:'DejaVu Serif';-inkscape-font-specification:DejaVuSerif;writing-mode:lr-tb;fill:#000000;fill-opacity:1;fill-rule:nonzero;stroke:none"
             x="822.25952"
             y="68.451668"><tspan
               id="tspan6656"
               sodipodi:role="line"
               y="68.451668"
               x="822.25952 831.16351">10</tspan></text>
<path
             inkscape:connector-curvature="0"
             id="path6658"
             style="fill:#999999;fill-opacity:1;fill-rule:nonzero;stroke:#999999;stroke-width:0.80000001;stroke-linecap:butt;stroke-linejoin:round;stroke-miterlimit:10;stroke-dasharray:none;stroke-opacity:1"
             d="m 917.04922,-49.311047 0,-5" /><text
             transform="scale(1,-1)"
             id="text6660"
             style="font-variant:normal;font-weight:normal;font-size:14px;font-family:'DejaVu Serif';-inkscape-font-specification:DejaVuSerif;writing-mode:lr-tb;fill:#000000;fill-opacity:1;fill-rule:nonzero;stroke:none"
             x="908.14294"
             y="68.451668"><tspan
               id="tspan6662"
               sodipodi:role="line"
               y="68.451668"
               x="908.14294 917.047">15</tspan></text>
<path
             inkscape:connector-curvature="0"
             id="path6664"
             style="fill:#999999;fill-opacity:1;fill-rule:nonzero;stroke:#999999;stroke-width:0.80000001;stroke-linecap:butt;stroke-linejoin:round;stroke-miterlimit:10;stroke-dasharray:none;stroke-opacity:1"
             d="m 1002.9327,-49.311047 0,-5" /><text
             transform="scale(1,-1)"
             id="text6666"
             style="font-variant:normal;font-weight:normal;font-size:14px;font-family:'DejaVu Serif';-inkscape-font-specification:DejaVuSerif;writing-mode:lr-tb;fill:#000000;fill-opacity:1;fill-rule:nonzero;stroke:none"
             x="994.02643"
             y="68.451668"><tspan
               id="tspan6668"
               sodipodi:role="line"
               y="68.451668"
               x="994.02643 1002.9304">20</tspan></text>
<text
             transform="scale(1,-1)"
             id="text6670"
             style="font-variant:normal;font-weight:normal;font-size:14px;font-family:'DejaVu Serif';-inkscape-font-specification:DejaVuSerif;writing-mode:lr-tb;fill:#000000;fill-opacity:1;fill-rule:nonzero;stroke:none"
             x="821.30579"
             y="85.998543"><tspan
               id="tspan6672"
               sodipodi:role="line"
               y="85.998543"
               x="821.30579 830.6438 835.12378 848.39575 856.68378 861.1358 866.59576 879.8678 887.0498">Time (ms)</tspan></text>
<path
             inkscape:connector-curvature="0"
             id="path6674"
             style="fill:#999999;fill-opacity:1;fill-rule:nonzero;stroke:#999999;stroke-width:0.80000001;stroke-linecap:butt;stroke-linejoin:round;stroke-miterlimit:10;stroke-dasharray:none;stroke-opacity:1"
             d="m 659.39879,-49.311047 -5,0" /><g
             transform="translate(621.35191,-54.631359)"
             id="g6676"><text
               id="text6678"
               style="font-variant:normal;font-weight:normal;font-size:14px;font-family:'DejaVu Serif';-inkscape-font-specification:DejaVuSerif;writing-mode:lr-tb;fill:#000000;fill-opacity:1;fill-rule:nonzero;stroke:none"
               transform="matrix(1,0,0,-1,11.730469,0)"><tspan
                 id="tspan6680"
                 sodipodi:role="line"
                 y="0"
                 x="0 8.9040003">80</tspan></text>
<g
               transform="scale(0.014,0.014)"
               id="g6682"><g
                 id="g6684"><g
                   clip-path="url(#clipPath6688)"
                   id="g6686"><path
                     inkscape:connector-curvature="0"
                     id="path6692"
                     style="fill:#000000;fill-opacity:1;fill-rule:nonzero;stroke:none"
                     d="m 106,353 626,0 0,-79 -626,0 0,79" /></g></g></g></g><path
             inkscape:connector-curvature="0"
             id="path6694"
             style="fill:#999999;fill-opacity:1;fill-rule:nonzero;stroke:#999999;stroke-width:0.80000001;stroke-linecap:butt;stroke-linejoin:round;stroke-miterlimit:10;stroke-dasharray:none;stroke-opacity:1"
             d="m 659.39879,-1.4433433 -5,0" /><g
             transform="translate(621.35191,-6.7636553)"
             id="g6696"><text
               id="text6698"
               style="font-variant:normal;font-weight:normal;font-size:14px;font-family:'DejaVu Serif';-inkscape-font-specification:DejaVuSerif;writing-mode:lr-tb;fill:#000000;fill-opacity:1;fill-rule:nonzero;stroke:none"
               transform="matrix(1,0,0,-1,11.730469,0)"><tspan
                 id="tspan6700"
                 sodipodi:role="line"
                 y="0"
                 x="0 8.9040003">60</tspan></text>
<g
               transform="scale(0.014,0.014)"
               id="g6702"><g
                 id="g6704"><g
                   clip-path="url(#clipPath6708)"
                   id="g6706"><path
                     inkscape:connector-curvature="0"
                     id="path6712"
                     style="fill:#000000;fill-opacity:1;fill-rule:nonzero;stroke:none"
                     d="m 106,353 626,0 0,-79 -626,0 0,79" /></g></g></g></g><path
             inkscape:connector-curvature="0"
             id="path6714"
             style="fill:#999999;fill-opacity:1;fill-rule:nonzero;stroke:#999999;stroke-width:0.80000001;stroke-linecap:butt;stroke-linejoin:round;stroke-miterlimit:10;stroke-dasharray:none;stroke-opacity:1"
             d="m 659.39879,46.424357 -5,0" /><g
             transform="translate(621.35191,41.104057)"
             id="g6716"><text
               id="text6718"
               style="font-variant:normal;font-weight:normal;font-size:14px;font-family:'DejaVu Serif';-inkscape-font-specification:DejaVuSerif;writing-mode:lr-tb;fill:#000000;fill-opacity:1;fill-rule:nonzero;stroke:none"
               transform="matrix(1,0,0,-1,11.730469,0)"><tspan
                 id="tspan6720"
                 sodipodi:role="line"
                 y="0"
                 x="0 8.9040003">40</tspan></text>
<g
               transform="scale(0.014,0.014)"
               id="g6722"><g
                 id="g6724"><g
                   clip-path="url(#clipPath6728)"
                   id="g6726"><path
                     inkscape:connector-curvature="0"
                     id="path6732"
                     style="fill:#000000;fill-opacity:1;fill-rule:nonzero;stroke:none"
                     d="m 106,353 626,0 0,-79 -626,0 0,79" /></g></g></g></g><path
             inkscape:connector-curvature="0"
             id="path6734"
             style="fill:#999999;fill-opacity:1;fill-rule:nonzero;stroke:#999999;stroke-width:0.80000001;stroke-linecap:butt;stroke-linejoin:round;stroke-miterlimit:10;stroke-dasharray:none;stroke-opacity:1"
             d="m 659.39879,94.292077 -5,0" /><g
             transform="translate(621.35191,88.971757)"
             id="g6736"><text
               id="text6738"
               style="font-variant:normal;font-weight:normal;font-size:14px;font-family:'DejaVu Serif';-inkscape-font-specification:DejaVuSerif;writing-mode:lr-tb;fill:#000000;fill-opacity:1;fill-rule:nonzero;stroke:none"
               transform="matrix(1,0,0,-1,11.730469,0)"><tspan
                 id="tspan6740"
                 sodipodi:role="line"
                 y="0"
                 x="0 8.9040003">20</tspan></text>
<g
               transform="scale(0.014,0.014)"
               id="g6742"><g
                 id="g6744"><g
                   clip-path="url(#clipPath6748)"
                   id="g6746"><path
                     inkscape:connector-curvature="0"
                     id="path6752"
                     style="fill:#000000;fill-opacity:1;fill-rule:nonzero;stroke:none"
                     d="m 106,353 626,0 0,-79 -626,0 0,79" /></g></g></g></g><path
             inkscape:connector-curvature="0"
             id="path6754"
             style="fill:#999999;fill-opacity:1;fill-rule:nonzero;stroke:#999999;stroke-width:0.80000001;stroke-linecap:butt;stroke-linejoin:round;stroke-miterlimit:10;stroke-dasharray:none;stroke-opacity:1"
             d="m 659.39879,142.15979 -5,0" /><text
             transform="scale(1,-1)"
             id="text6756"
             style="font-variant:normal;font-weight:normal;font-size:14px;font-family:'DejaVu Serif';-inkscape-font-specification:DejaVuSerif;writing-mode:lr-tb;fill:#000000;fill-opacity:1;fill-rule:nonzero;stroke:none"
             x="641.99255"
             y="-136.83946"><tspan
               id="tspan6758"
               y="-136.83946"
               x="641.99255">0</tspan></text>
<path
             inkscape:connector-curvature="0"
             id="path6760"
             style="fill:#999999;fill-opacity:1;fill-rule:nonzero;stroke:#999999;stroke-width:0.80000001;stroke-linecap:butt;stroke-linejoin:round;stroke-miterlimit:10;stroke-dasharray:none;stroke-opacity:1"
             d="m 659.39879,190.02749 -5,0" /><text
             transform="scale(1,-1)"
             id="text6762"
             style="font-variant:normal;font-weight:normal;font-size:14px;font-family:'DejaVu Serif';-inkscape-font-specification:DejaVuSerif;writing-mode:lr-tb;fill:#000000;fill-opacity:1;fill-rule:nonzero;stroke:none"
             x="633.0863"
             y="-184.70717"><tspan
               id="tspan6764"
               sodipodi:role="line"
               y="-184.70717"
               x="633.0863 641.9903">20</tspan></text>
<path
             inkscape:connector-curvature="0"
             id="path6766"
             style="fill:#999999;fill-opacity:1;fill-rule:nonzero;stroke:#999999;stroke-width:0.80000001;stroke-linecap:butt;stroke-linejoin:round;stroke-miterlimit:10;stroke-dasharray:none;stroke-opacity:1"
             d="m 659.39879,237.8952 -5,0" /><text
             transform="scale(1,-1)"
             id="text6768"
             style="font-variant:normal;font-weight:normal;font-size:14px;font-family:'DejaVu Serif';-inkscape-font-specification:DejaVuSerif;writing-mode:lr-tb;fill:#000000;fill-opacity:1;fill-rule:nonzero;stroke:none"
             x="633.0863"
             y="-232.57487"><tspan
               id="tspan6770"
               sodipodi:role="line"
               y="-232.57487"
               x="633.0863 641.9903">40</tspan></text>
<path
             inkscape:connector-curvature="0"
             id="path6776"
             style="fill:none;stroke:#999999;stroke-width:1;stroke-linecap:square;stroke-linejoin:miter;stroke-miterlimit:10;stroke-dasharray:none;stroke-opacity:1"
             d="m 659.39879,-49.311047 0,294.386407" /><path
             inkscape:connector-curvature="0"
             id="path6778"
             style="fill:none;stroke:#999999;stroke-width:1;stroke-linecap:square;stroke-linejoin:miter;stroke-miterlimit:10;stroke-dasharray:none;stroke-opacity:1"
             d="m 659.39879,-49.311047 395.06401,0" /><g
             id="g6780"
             transform="translate(595.67879,-91.366247)"><g
               clip-path="url(#clipPath6784)"
               id="g6782"><path
                 inkscape:connector-curvature="0"
                 id="path6788"
                 style="fill:none;stroke:#00731b;stroke-width:2;stroke-linecap:round;stroke-linejoin:round;stroke-miterlimit:10;stroke-dasharray:none;stroke-opacity:1"
                 d="m 63.72,77.95598 4.294174,1.154386 5.582426,1.26099 6.870678,1.306073 7.300096,1.1611 8.15893,1.06415 2.147087,0.242048 2.576509,5.35136 7.72951,15.339363 1.71767,4.2538 1.28825,3.78819 1.28825,4.58927 0.85884,3.70462 0.85883,4.43233 0.85884,5.43179 0.85883,6.8321 0.85884,8.83428 0.85883,11.74434 0.85884,15.98636 0.85883,21.9653 0.85884,29.3502 2.14708,81.58639 0.42942,9.42808 0.42942,6.16419 0.42941,3.55061 0.42942,1.69164 0.42942,0.46498 0.42942,-0.32084 0.42941,-0.8324 0.85884,-2.62774 0.85883,-3.47426 1.28826,-6.31594 1.71767,-9.9278 2.14708,-14.02494 3.43534,-24.22457 5.58243,-39.31634 3.86475,-25.50536 3.86476,-24.01909 6.01184,-37.005 2.14709,-14.88988 1.71767,-13.40259 2.5765,-22.396814 1.71767,-14.206452 0.85884,-5.8482 0.85883,-4.666783 0.85884,-3.461678 0.85883,-2.403677 0.85884,-1.576154 0.85883,-0.981081 0.85884,-0.576949 0.85883,-0.312154 1.28825,-0.169534 1.71768,0.06512 2.5765,0.352537 5.15301,0.980766 7.30009,1.618485 8.15893,2.043318 8.58835,2.391917 9.44718,2.870832 12.02369,3.906074 34.35339,11.31205 12.88252,3.91745 16.31786,4.705105 16.31787,4.746221 7.30009,2.349065 5.15301,1.869882 4.29417,1.791224 3.43534,1.67446 3.00592,1.73292 2.57651,1.77859 2.14709,1.78007 1.71767,1.69607 1.71767,2.02783 1.28825,1.81181 1.28825,2.14317 1.28825,2.58061 1.28825,3.17049 1.28826,3.98506 0.85883,3.27043 0.85884,3.92236 0.85883,4.76661 0.85884,5.87115 0.85883,7.32581 0.85883,9.24004 0.85884,11.72065 0.85883,14.79765 0.85884,18.24273 3.00592,71.94642 0.85884,11.60438 0.42941,3.48709 0.42942,2.1681 0.42942,1.07159 0.42942,0.19045 0.42941,-0.50391 0.42942,-1.04706 0.85884,-3.28193 0.85883,-4.37315 1.28825,-7.82945 2.14709,-14.86334 8.58835,-61.47881 3.43534,-22.28729 7.72951,-48.97466 2.14709,-15.85325 2.5765,-21.245327 1.71767,-13.801852 1.28825,-8.541905 0.85884,-4.400479 0.85883,-3.325249 0.85884,-2.371471 0.85883,-1.608172 0.85884,-1.041779 0.85883,-0.642789 0.85884,-0.370874 1.28825,-0.235289 1.71767,0.01698 2.5765,0.335577 4.29418,0.838166 6.87067,1.582269 8.15893,2.113072 8.58835,2.456766 9.8766,3.062554 13.74136,4.522596 4.72359,1.583121 0,0" /></g></g><g
             id="g6790"
             transform="translate(595.67879,-91.366247)"><g
               clip-path="url(#clipPath6794)"
               id="g6792"><path
                 inkscape:connector-curvature="0"
                 id="path6798"
                 style="fill:none;stroke:#960000;stroke-width:2;stroke-linecap:round;stroke-linejoin:round;stroke-miterlimit:10;stroke-dasharray:none;stroke-opacity:1"
                 d="m 63.72,77.95598 3.005922,1.202413 3.864756,1.272455 4.723592,1.292217 5.582426,1.277585 6.441261,1.228187 6.870678,1.074593 3.864756,0.50759 2.147089,4.420336 3.43534,6.381464 2.5765,4.98821 1.71767,3.85355 1.28825,3.42403 1.28826,4.15834 0.85883,3.37292 0.85884,4.0602 0.85883,5.01869 0.85884,6.38872 0.85883,8.40187 0.85883,11.44218 0.85884,16.12066 0.85883,23.22798 0.85884,32.86769 1.71767,78.39674 0.42942,12.58937 0.42941,7.97153 0.42942,4.34836 0.42942,1.98349 0.42941,0.59651 0.42942,-0.20093 0.42942,-0.6893 0.85883,-2.30094 0.85884,-3.15354 1.28825,-5.89665 1.28825,-6.97213 1.71767,-10.51969 2.57651,-17.42269 10.30601,-71.74981 3.86476,-24.67413 6.87068,-43.27131 1.71767,-12.31717 1.71767,-13.98877 1.71767,-16.08782 3.00592,-28.988724 0.85883,-6.130452 0.85884,-4.463127 0.85883,-2.92489 0.85884,-1.74543 0.85883,-0.956928 0.85884,-0.477483 0.85883,-0.203128 1.28826,-0.04335 2.14708,0.200728 5.15301,0.78873 8.15893,1.481587 8.15893,1.706774 8.58835,2.028485 9.01777,2.358006 10.73543,3.045267 16.74728,5.021513 18.46495,5.47309 12.4531,3.45428 12.02369,3.099086 12.4531,2.978392 15.45903,3.452704 26.19446,5.809606 7.30009,1.877503 5.15301,1.542908 3.86476,1.366233 3.43534,1.45817 2.5765,1.32319 2.14709,1.3229 2.14709,1.60888 1.71767,1.57656 1.71767,1.94016 1.28825,1.78336 1.28825,2.16893 1.28825,2.69508 1.28825,3.43295 0.85884,2.85444 0.85883,3.46779 0.85884,4.28069 0.85883,5.37675 0.85884,6.8786 0.85883,8.9616 0.85884,11.85609 0.85883,15.79169 0.85884,20.74961 1.28825,39.87639 1.28825,38.63155 0.42942,9.17664 0.42942,6.77002 0.42941,4.56115 0.42942,2.74405 0.42942,1.35524 0.42942,0.33483 0.42941,-0.40811 0.42942,-0.9567 0.85884,-3.07193 0.85883,-4.13817 1.28825,-7.50345 1.71767,-11.48003 3.43534,-25.01802 4.72359,-34.12873 3.43534,-23.23448 4.29418,-27.42186 3.43534,-22.15648 2.14708,-15.3513 1.71767,-14.00549 1.71767,-15.860604 2.57651,-24.16097 0.85883,-6.383591 0.85884,-4.885739 0.85883,-3.389975 0.85883,-2.150699 0.85884,-1.260103 0.85883,-0.682091 0.85884,-0.33162 1.28825,-0.14432 1.71767,0.101104 3.43534,0.495189 7.3001,1.32543 8.15893,1.704538 8.58834,2.026444 7.3001,1.891046 0,0" /></g></g><g
             id="g6800"
             transform="translate(595.67879,-91.366247)"><g
               clip-path="url(#clipPath6804)"
               id="g6802"><path
                 inkscape:connector-curvature="0"
                 id="path6808"
                 style="fill:none;stroke:#0011bc;stroke-width:2;stroke-linecap:round;stroke-linejoin:round;stroke-miterlimit:10;stroke-dasharray:none;stroke-opacity:1"
                 d="m 63.72,77.95598 9.017765,1.217136 11.164852,1.282482 12.023687,1.15486 2.147087,0.182811 3.435339,7.192464 8.58835,17.608737 1.71767,4.13367 1.71767,4.75045 1.28825,4.18871 1.28825,4.99115 1.28825,6.16662 0.85884,5.03968 0.85883,6.06533 0.85884,7.43585 0.85883,9.2762 0.85884,11.73628 0.85883,14.94678 0.85884,18.87687 1.28825,35.7755 1.71767,50.24596 0.85883,17.83321 0.42942,6.1663 0.42942,4.44362 0.42942,2.94565 0.42941,1.71001 0.42942,0.72813 0.42942,-0.034 0.42942,-0.61936 0.42941,-1.06897 0.85884,-3.11005 0.85883,-4.00838 1.28825,-7.11251 1.71767,-10.8157 2.57651,-17.81906 8.15893,-57.5595 3.43534,-22.17848 3.43534,-20.70481 4.72359,-26.89237 3.86475,-22.38619 2.57651,-16.15849 4.29417,-27.553668 1.28826,-6.933615 1.28825,-5.662375 0.85883,-3.01487 0.85884,-2.437639 0.85883,-1.9229 0.85884,-1.48486 0.85883,-1.124633 0.85884,-0.835281 0.85883,-0.606319 1.28825,-0.585221 1.28826,-0.304017 1.71766,-0.112923 2.14709,0.154843 2.57651,0.438346 3.43534,0.818308 4.72359,1.356413 6.44126,2.091052 7.72951,2.749597 9.44718,3.612335 12.88252,5.1932 30.05922,12.190538 21.47087,8.625536 6.44126,2.837403 5.15301,2.50972 3.86476,2.113 3.43534,2.13093 3.00592,2.1478 2.5765,2.13975 2.14709,2.07448 1.71767,1.9146 1.71767,2.21191 1.71767,2.60104 1.28825,2.28223 1.28825,2.64747 1.28826,3.11186 1.28825,3.70927 1.28825,4.48626 1.28825,5.50543 1.28825,6.84675 1.28826,8.59969 1.28825,10.83052 1.28825,13.49408 1.28825,16.25942 3.86476,52.37597 0.85883,7.74779 0.85884,5.19553 0.42942,1.64656 0.42941,1.04982 0.42942,0.49504 0.42942,-0.0116 0.42942,-0.46737 0.42941,-0.87217 0.85884,-2.76505 0.85883,-3.83709 1.28825,-7.14417 1.71767,-11.04096 8.58835,-57.59848 3.43534,-20.50269 14.17078,-80.817993 1.28825,-5.372318 1.28825,-4.257594 0.85883,-2.243422 0.85884,-1.817456 0.85883,-1.446736 0.85884,-1.133134 0.85883,-0.873137 1.28826,-0.9237 1.28825,-0.572856 1.28825,-0.318132 1.71767,-0.14493 1.71767,0.0746 2.5765,0.374652 3.00593,0.679539 4.29417,1.223751 5.58243,1.83658 7.30009,2.642191 9.44718,3.66348 15.45903,6.270616 19.7532,7.957914 9.8766,3.854477 0,0" /></g></g></g></g></g></g><g
     inkscape:groupmode="layer"
     id="layer1"
     inkscape:label="line"
     style="display:none"
     transform="translate(15.297677,2.6453017e-7)"><path
       transform="matrix(1.25,0,0,-1.25,-25.387305,434.31862)"
       style="color:#000000;clip-rule:nonzero;display:inline;overflow:visible;visibility:visible;opacity:1;isolation:auto;mix-blend-mode:normal;color-interpolation:sRGB;color-interpolation-filters:linearRGB;solid-color:#000000;solid-opacity:1;fill:none;fill-opacity:1;fill-rule:evenodd;stroke:#313131;stroke-width:2.4000001;stroke-linecap:butt;stroke-linejoin:miter;stroke-miterlimit:4;stroke-dasharray:14.4, 14.4;stroke-dashoffset:0;stroke-opacity:1;color-rendering:auto;image-rendering:auto;shape-rendering:auto;text-rendering:auto;enable-background:accumulate"
       d="m 335.44607,42.578472 0.42579,304.292678"
       id="path4456"
       inkscape:connector-curvature="0"
       sodipodi:nodetypes="cc" /></g><g
     inkscape:groupmode="layer"
     id="layer2"
     inkscape:label="spike 1"
     style="display:none"
     transform="translate(15.297677,2.6453017e-7)"><circle
       style="color:#000000;clip-rule:nonzero;display:inline;overflow:visible;visibility:visible;opacity:1;isolation:auto;mix-blend-mode:normal;color-interpolation:sRGB;color-interpolation-filters:linearRGB;solid-color:#000000;solid-opacity:1;fill:none;fill-opacity:1;fill-rule:evenodd;stroke:#313131;stroke-width:2.4000001;stroke-linecap:butt;stroke-linejoin:miter;stroke-miterlimit:4;stroke-dasharray:none;stroke-dashoffset:0;stroke-opacity:1;color-rendering:auto;image-rendering:auto;shape-rendering:auto;text-rendering:auto;enable-background:accumulate"
       id="path4562"
       cx="125.693"
       cy="-326.02985"
       r="20.22505"
       transform="matrix(1.25,0,0,1.25,-25.387305,434.31862)" /></g><g
     inkscape:groupmode="layer"
     id="layer3"
     inkscape:label="spike 2"
     style="display:none"
     transform="translate(15.297677,2.6453017e-7)"><ellipse
       style="color:#000000;clip-rule:nonzero;display:inline;overflow:visible;visibility:visible;opacity:1;isolation:auto;mix-blend-mode:normal;color-interpolation:sRGB;color-interpolation-filters:linearRGB;solid-color:#000000;solid-opacity:1;fill:none;fill-opacity:1;fill-rule:evenodd;stroke:#313131;stroke-width:2.4000001;stroke-linecap:butt;stroke-linejoin:miter;stroke-miterlimit:4;stroke-dasharray:none;stroke-dashoffset:0;stroke-opacity:1;color-rendering:auto;image-rendering:auto;shape-rendering:auto;text-rendering:auto;enable-background:accumulate"
       id="path4545"
       cx="449.58429"
       cy="-66.190544"
       transform="matrix(1.0801768,-0.6290612,0.6290612,1.0801768,-25.387305,434.31862)"
       rx="44.920902"
       ry="28.740864" /></g><g
     inkscape:groupmode="layer"
     id="layer4"
     inkscape:label="difference"
     transform="translate(15.297677,2.6453017e-7)"
     style="display:none"><g
       id="g37746-3-3"
       transform="matrix(0.35729116,0,0,0.3924609,62.919423,47.858361)"
       style="display:inline;stroke:#000000;stroke-width:10;stroke-miterlimit:4;stroke-dasharray:none;stroke-opacity:1;filter:url(#filter39605-3-0)"><g
         style="stroke:#000000;stroke-opacity:1"
         id="g39859-1-6"
         transform="translate(-36.865274,53.405674)" /></g><path
       style="display:inline;fill:none;fill-rule:evenodd;stroke:#000000;stroke-width:2.71928835;stroke-linecap:butt;stroke-linejoin:miter;stroke-miterlimit:4;stroke-dasharray:none;stroke-opacity:1;marker-start:url(#marker4570);marker-end:url(#marker4570)"
       d="M 451.59265,355.8212 452.12507,54.162676"
       id="path4456-8"
       inkscape:connector-curvature="0" /></g></svg>