<?xml version="1.0" encoding="UTF-8" standalone="no"?>
<!-- Created with Inkscape (http://www.inkscape.org/) -->

<svg
   xmlns:dc="http://purl.org/dc/elements/1.1/"
   xmlns:cc="http://creativecommons.org/ns#"
   xmlns:rdf="http://www.w3.org/1999/02/22-rdf-syntax-ns#"
   xmlns:svg="http://www.w3.org/2000/svg"
   xmlns="http://www.w3.org/2000/svg"
   xmlns:sodipodi="http://sodipodi.sourceforge.net/DTD/sodipodi-0.dtd"
   xmlns:inkscape="http://www.inkscape.org/namespaces/inkscape"
   width="69.302986mm"
   height="94.25528mm"
   viewBox="0 0 245.56176 333.9754"
   id="svg4855"
   version="1.1"
   inkscape:version="0.91 r13725"
   inkscape:export-filename="/home/simen/Dropbox/phd/presentations/presentations/incf/figures/features_variance.png"
   inkscape:export-xdpi="300"
   inkscape:export-ydpi="300"
   sodipodi:docname="features_variance.svg">
  <defs
     id="defs4857">
    <clipPath
       clipPathUnits="userSpaceOnUse"
       id="clipPath178">
      <path
         d="m 63.72,42.0552 395.064,0 0,294.3864 -395.064,0 0,-294.3864 z"
         id="path180"
         inkscape:connector-curvature="0" />
    </clipPath>
    <clipPath
       clipPathUnits="userSpaceOnUse"
       id="clipPath162">
      <path
         d="m 63.72,42.0552 395.064,0 0,294.3864 -395.064,0 0,-294.3864 z"
         id="path164"
         inkscape:connector-curvature="0" />
    </clipPath>
    <clipPath
       clipPathUnits="userSpaceOnUse"
       id="clipPath5437">
      <rect
         style="color:#000000;clip-rule:nonzero;display:inline;overflow:visible;visibility:visible;opacity:1;isolation:auto;mix-blend-mode:normal;color-interpolation:sRGB;color-interpolation-filters:linearRGB;solid-color:#000000;solid-opacity:1;fill:none;fill-opacity:1;fill-rule:evenodd;stroke:#313131;stroke-width:3;stroke-linecap:butt;stroke-linejoin:miter;stroke-miterlimit:4;stroke-dasharray:none;stroke-dashoffset:0;stroke-opacity:1;color-rendering:auto;image-rendering:auto;shape-rendering:auto;text-rendering:auto;enable-background:accumulate"
         id="rect5439"
         width="245.56175"
         height="370.22"
         x="206.51218"
         y="110.66669" />
    </clipPath>
  </defs>
  <sodipodi:namedview
     id="base"
     pagecolor="#ffffff"
     bordercolor="#666666"
     borderopacity="1.0"
     inkscape:pageopacity="0.0"
     inkscape:pageshadow="2"
     inkscape:zoom="0.35"
     inkscape:cx="155.04225"
     inkscape:cy="62.470542"
     inkscape:document-units="px"
     inkscape:current-layer="layer1"
     showgrid="false"
     fit-margin-top="0"
     fit-margin-left="0"
     fit-margin-right="0"
     fit-margin-bottom="0"
     inkscape:window-width="702"
     inkscape:window-height="338"
     inkscape:window-x="775"
     inkscape:window-y="277"
     inkscape:window-maximized="0" />
  <metadata
     id="metadata4860">
    <rdf:RDF>
      <cc:Work
         rdf:about="">
        <dc:format>image/svg+xml</dc:format>
        <dc:type
           rdf:resource="http://purl.org/dc/dcmitype/StillImage" />
        <dc:title></dc:title>
      </cc:Work>
    </rdf:RDF>
  </metadata>
  <g
     inkscape:label="Layer 1"
     inkscape:groupmode="layer"
     id="layer1"
     transform="translate(-206.51218,-110.66669)">
    <g
       id="g5429"
       clip-path="url(#clipPath5437)">
      <g
         id="g158"
         transform="matrix(1.25,0,0,-1.25,-93.018505,513.93771)">
        <g
           clip-path="url(#clipPath162)"
           id="g160">
          <path
             inkscape:connector-curvature="0"
             id="path166"
             style="fill:#426e86;fill-opacity:0.6;fill-rule:nonzero;stroke:none"
             d="m 63.72,106.01341 0,-2.08753 0.429417,0.0296 0.429418,0.0156 0.429417,-0.0189 0.429418,-0.0499 0.429417,-0.0258 0.429417,-0.0453 0.429418,-0.0444 0.429417,-0.0526 0.429418,-0.0733 0.429417,-0.0931 0.429417,-0.0777 0.429418,-0.0925 0.429417,-0.0956 0.429417,-0.0912 0.429418,-0.099 0.429417,-0.0872 0.429418,-0.0857 0.429417,-0.079 0.429417,-0.0735 0.429418,-0.0823 0.429417,-0.0811 0.429418,-0.0799 0.429417,-0.0783 0.429417,-0.0725 0.429418,-0.0662 0.429417,-0.0766 0.429418,-0.0872 0.429417,-0.0736 0.429417,-0.069 0.429418,-0.0684 0.429417,-0.0672 0.429418,-0.0661 0.429417,-0.065 0.429417,-0.064 0.429418,-0.0628 0.429417,-0.0547 0.429417,-0.065 0.429418,-0.0562 0.429417,-0.0621 0.429418,-0.0598 0.429417,-0.0567 0.429417,-0.0554 0.429418,-0.0544 0.429417,-0.0534 0.429418,-0.0505 0.429417,-0.0494 0.429417,-0.0497 0.429418,-0.0504 0.429417,-0.0406 0.429418,-0.0447 0.429417,-0.0501 0.429417,-0.0585 0.429418,-0.0453 0.429417,-0.0442 0.429418,-0.0431 0.429417,-0.0422 0.429417,-0.0413 0.429418,-0.0405 0.429417,-0.0396 0.429417,-0.0363 0.429418,-0.0373 0.429417,-0.0367 0.429418,-0.0408 0.429417,-0.0356 0.429417,-0.0331 0.429418,-0.0314 0.429417,-0.0304 0.429418,-0.0303 0.429417,-0.0311 0.429417,-0.0299 0.429418,-0.0291 0.429417,-0.02956 0.429418,-0.02621 0.429417,-0.02672 0.429417,-0.02595 0.429418,-0.0252 0.429417,-0.02445 0.429418,-0.02372 0.429417,-0.02299 0.429417,-0.02227 0.429418,0.65091 0.429417,0.63972 0.429417,0.61073 0.429418,0.62608 0.429419,0.61624 0.42942,0.59761 0.42941,0.58758 0.42942,0.56945 0.42942,0.55915 0.42942,0.54898 0.42941,0.53895 0.42942,0.54082 0.42942,0.55948 0.42941,0.5427 0.42942,0.54493 0.42942,0.52097 0.42942,0.51634 0.42941,0.51713 0.42942,0.49845 0.42942,0.49722 0.42942,0.45907 0.42941,0.45449 0.42942,0.45008 0.42942,0.48705 0.42942,0.39475 0.42941,0.43311 0.42942,0.40341 0.42942,0.36533 0.42942,0.31454 0.42941,0.37635 0.42942,0.35198 0.42942,0.3336 0.42942,0.28616 0.42941,0.02 0.42942,0.0158 0.42942,0.14898 0.42942,-0.0478 0.42941,-0.40569 0.42942,-0.728 0.42942,-1.00494 0.42941,-0.83506 0.42942,-0.82316 0.42942,-0.59994 0.42942,-0.26927 0.42941,-0.21426 0.42942,0.66703 0.42942,0.19566 0.42942,0.46476 0.42941,-0.0278 0.42942,0.20408 0.42942,0.1568 0.42942,0.49851 0.42941,0.36626 0.42942,0.75369 0.42942,0.96916 0.42941,1.49203 0.42942,1.41414 0.42942,0.0344 0.42942,1.10154 0.42941,0.63463 0.42942,1.32618 0.42942,2.13276 0.42942,1.76937 0.42941,2.42554 0.42942,3.07139 0.42942,2.69953 0.42942,2.37053 0.42941,2.704 0.42942,1.77068 0.42942,3.64276 0.42942,4.10563 0.42941,5.59108 0.42942,5.71344 0.42942,6.95692 0.42942,6.49644 0.42941,7.10227 0.42942,7.20231 0.42942,3.78798 0.42941,4.59947 0.42942,5.04577 0.42942,4.43023 0.42942,5.01503 0.42941,4.84877 0.42942,4.83845 0.42942,4.79522 0.42942,5.32228 0.42941,4.03746 0.42942,3.60689 0.42942,0.53487 0.42942,0.32249 0.42941,0.10649 0.42942,-0.87823 0.42942,-0.73049 0.42942,-1.10612 0.42941,-0.79304 0.42942,-1.5645 0.42942,-1.47448 0.42942,-1.76148 0.42941,-1.71179 0.42942,-1.80974 0.42942,-1.88182 0.42941,-2.1303 0.42942,-2.02011 0.42942,-2.26872 0.42942,-1.97727 0.42941,-2.01777 0.42942,-2.06449 0.42942,-2.11926 0.42942,-2.06105 0.42941,-2.0057 0.42942,-1.95227 0.42942,-2.02843 0.42942,-2.00747 0.42941,-2.00826 0.42942,-1.99059 0.42942,-1.98344 0.42942,-1.97442 0.42941,-1.97272 0.42942,-1.96566 0.42942,-1.96257 0.42942,-1.99519 0.42941,-1.98054 0.42942,-1.87766 0.42942,-1.87865 0.42941,-1.9461 0.42942,-1.88898 0.42942,-1.91819 0.42942,-1.85552 0.42942,-1.91572 0.42941,-1.93734 0.42942,-2.00474 0.42942,-1.99155 0.42941,-1.95482 0.42942,-1.96252 0.42942,-2.00404 0.42942,-2.02773 0.42941,-2.07852 0.42942,-2.09167 0.42942,-2.09435 0.42942,-2.15095 0.42941,-2.19278 0.42942,-2.24656 0.42942,-2.2427 0.42942,-2.42127 0.42941,-2.44244 0.42942,-2.52358 0.42942,-2.53311 0.42941,-2.69399 0.42942,-2.75822 0.42942,-2.70625 0.42942,-2.72566 0.42941,-2.89385 0.42942,-2.73254 0.42942,-2.78055 0.42942,-2.90186 0.42941,-2.86708 0.42942,-2.7668 0.42942,-2.537099 0.42942,-2.234371 0.42941,-1.747741 0.42942,-1.678548 0.42942,-1.433809 0.42942,-1.335668 0.42941,-1.030954 0.42942,-0.844014 0.42942,-0.66052 0.42942,-0.524841 0.42941,-0.435212 0.42942,-0.310689 0.42942,-0.354496 0.42941,-0.201188 0.42942,-0.109063 0.42942,-0.112254 0.42942,-0.208719 0.42942,-0.154341 0.42941,-0.116185 0.42942,-0.110269 0.42942,-0.11022 0.42941,-0.03413 0.42942,-0.03131 0.42942,-0.01984 0.42942,0.0018 0.42941,-0.0071 0.42942,-0.0025 0.42942,0.0176 0.42942,0.02039 0.42941,-0.0045 0.42942,0.03663 0.42942,0.04425 0.42942,0.03048 0.42941,0.0244 0.42942,0.02353 0.42942,0.02415 0.42941,0.04291 0.42942,0.0493 0.42942,0.04769 0.42942,0.04083 0.42941,0.04787 0.42942,0.04602 0.42942,0.04756 0.42942,0.04957 0.42941,0.04788 0.42942,0.0481 0.42942,0.05163 0.42942,0.05368 0.42941,0.05241 0.42942,0.05163 0.42942,0.04499 0.42942,0.0458 0.42941,0.04614 0.42942,0.05156 0.42942,0.04618 0.42942,0.05616 0.42941,0.05031 0.42942,0.05577 0.42942,0.05575 0.42941,0.05442 0.42942,0.05655 0.42942,0.06185 0.42942,0.06236 0.42941,0.06148 0.42942,0.05746 0.42942,0.05697 0.42942,0.04317 0.42941,0.05365 0.42942,0.06395 0.42942,0.06279 0.42942,0.05303 0.42941,0.05448 0.42942,0.06662 0.42942,0.06735 0.42942,0.06649 0.42941,0.05921 0.42942,0.06001 0.42942,0.0605 0.42942,0.064 0.42941,0.05931 0.42942,0.06641 0.42942,0.05897 0.42941,0.06277 0.42942,0.06643 0.42942,0.06173 0.42942,0.06231 0.42942,0.0689 0.42941,0.06902 0.42942,0.06505 0.42942,0.06557 0.42941,0.06575 0.42942,0.06098 0.42942,0.06877 0.42942,0.06853 0.42941,0.0684 0.42942,0.06978 0.42942,0.06867 0.42942,0.07646 0.42941,0.06621 0.42942,0.06526 0.42942,0.06638 0.42942,0.06656 0.42941,0.06948 0.42942,0.07045 0.42942,0.06935 0.42941,0.06385 0.42942,0.06908 0.42942,0.07602 0.42942,0.07664 0.42941,0.07719 0.42942,0.07523 0.42942,0.07944 0.42942,0.07869 0.42941,0.07768 0.42942,0.0702 0.42942,0.07063 0.42942,0.07401 0.42941,0.07847 0.42942,0.07486 0.42942,0.07739 0.42942,0.07785 0.42941,0.08174 0.42942,0.08217 0.42942,0.08149 0.42942,0.08132 0.42941,0.07638 0.42942,0.07584 0.42942,0.08006 0.42941,0.0784 0.42942,0.07953 0.42942,0.08146 0.42942,0.08183 0.42941,0.0822 0.42942,0.08261 0.42942,0.08337 0.42942,0.08708 0.42941,0.08982 0.42942,0.0901 0.42942,0.09037 0.42942,0.08257 0.42941,0.08104 0.42942,0.08139 0.42942,0.08173 0.42942,0.08207 0.42941,0.08721 0.42942,0.09071 0.42942,0.09109 0.42942,0.09146 0.42941,0.08613 0.42942,0.08611 0.42942,0.0864 0.42941,0.0867 0.42942,0.08698 0.42942,0.08727 0.42942,0.08755 0.42942,0.08889 0.42941,0.0912 0.42942,0.08951 0.42942,0.09077 0.42941,0.09118 0.42942,0.09146 0.42942,0.09292 0.42942,0.09343 0.42941,0.09194 0.42942,0.09127 0.42942,0.09154 0.42942,0.09272 0.42941,0.0932 0.42942,0.09348 0.42942,0.09387 0.42942,0.09445 0.42941,0.09464 0.42942,0.09509 0.42942,0.103693 0.42941,0.103985 0.42942,0.09765 0.42942,0.09621 0.42942,0.09639 0.42942,0.09665 0.42941,0.09716 0.42942,0.09733 0.42942,0.09889 0.42941,0.101937 0.42942,0.09619 0.42942,0.09633 0.42942,0.09647 0.42941,0.09661 0.42942,0.09674 0.42942,0.098 0.42942,0.101147 0.42941,0.105784 0.42942,0.09881 0.42942,0.09682 0.42942,0.09677 0.42941,0.09594 0.42942,0.09601 0.42942,0.09735 0.42941,0.09884 0.42942,0.09852 0.42942,0.09772 0.42942,0.09795 0.42941,0.09926 0.42942,0.101338 0.42942,0.09578 0.42942,0.09856 0.42941,0.101324 0.42942,0.101385 0.42942,0.1011 0.42942,0.09976 0.42941,0.09979 0.42942,0.103796 0.42942,0.100672 0.42942,0.0977 0.42941,0.0977 0.42942,0.0981 0.42942,0.0995 0.42942,0.0983 0.42941,0.0961 0.42942,0.0967 0.42942,0.0993 0.42941,0.1026 0.42942,0.10265 0.42942,0.0934 0.42942,0.092 0.42941,0.0966 0.42942,0.098 0.42942,0.098 0.42942,0.0983 0.42941,0.0973 0.42942,0.0978 0.42942,0.0991 0.42942,0.0993 0.42941,0.10387 0.42942,0.10541 0.42942,0.10438 0.42942,0.0953 0.42941,0.0861 0.42942,0.0979 0.42942,0.0988 0.42942,0.0969 0.42941,0.10042 0.42942,0.0976 0.42942,0.0992 0.42941,0.0896 0.42942,0.0968 0.42942,0.10056 0.42942,0.10059 0.42941,0.10073 0.42942,0.10075 0.42942,0.0954 0.42942,0.0818 0.42941,0.0936 0.42942,0.097 0.42942,0.0972 0.42942,0.0972 0.42941,0.0972 0.42942,0.0962 0.42942,0.0965 0.42942,0.0934 0.42941,0.0906 0.42942,0.0938 0.42942,0.0806 0.42942,0.0936 0.42941,0.0917 0.42942,0.0789 0.42942,0.0865 0.42941,0.0903 0.42942,0.0932 0.42942,0.0931 0.42942,0.0943 0.42941,0.0779 0.42942,0.0845 0.42942,0.0707 0.42942,0.0908 0.42941,0.0978 0.42942,0.0977 0.42942,0.098 0.42942,0.0991 0.42941,0.0944 0.42942,0.089 0.42942,0.0791 0.42942,0.0819 0.42941,0.0752 0.42942,0.0768 0.42942,0.0764 0.42942,0.0745 0.42941,0.0781 0.42942,0.0882 0.42942,0.0976 0.42941,0.0921 0.42942,0.0647 0.42942,0.10387 0.42942,0.10416 0.42941,0.0897 0.42942,0.0851 0.42942,0.0928 0.42942,0.0668 0.42941,0.0559 0.42942,0.0727 0.42942,0.054 0.42942,0.0666 0.42941,0.0772 0.42942,0.0681 0.42942,0.0973 0.42942,0.0543 0.42941,0.0405 0.42942,0.0832 0.42942,0.086 0.42942,0.0595 0.42941,0.0504 0.42942,0.0703 0.42942,0.0339 0.42941,0.0818 0.42942,0.0286 0.42942,0.0198 0.42942,0.11618 0.42941,-2.8e-4 0.42942,0.0297 0.42942,0.0845 0.42942,0.0209 0.42941,0.003 0.42942,-0.0644 0.42942,0.0274 0.42942,0.0359 0.42941,-0.008 0.42942,-0.11148 0.42942,-0.20365 0.42942,-0.53622 0.42941,-0.22738 0.42942,-0.39271 0.42942,-0.79294 0.42942,-0.69375 0.42941,-0.90084 0.42942,-0.68709 0.42942,-0.82349 0.42941,-0.62132 0.42942,-0.49594 0.42942,-0.42345 0.42942,-0.42831 0.42941,-0.24781 0.42942,0.0744 0.42942,0.19385 0.42942,-0.30369 0.42941,0.0866 0.42942,0.3055 0.42942,0.26237 0.42942,-0.056 0.42941,-0.44826 0.42942,-0.18886 0.42942,-0.20331 0.42942,-0.43929 0.42941,-0.10613 0.42942,0.59757 0.42942,-0.16357 0.42942,1.1681 0.42941,0.12601 0.42942,0.90535 0.42942,0.34956 0.42942,0.45318 0.42941,0.79033 0.42942,0.43196 0.42942,-0.059 0.42941,-0.29692 0.42942,-0.89423 0.42942,-1.40671 0.42942,-1.00291 0.42941,-1.09451 0.42942,-0.41963 0.42942,-1.244298 0.42942,-0.821979 0.42941,-0.798504 0.42942,-0.628122 0.42942,-0.204947 0.42942,-0.255905 0.42941,-0.544841 0.42942,0.09476 0.42942,0.190756 0.42942,-0.03555 0.42941,-0.03547 0.42942,-0.329044 0.42942,-0.232629 0.42941,-0.118665 0.42942,-0.0474 0.42942,-0.790694 0.42942,-0.875639 0.42941,-0.70894 0.42942,-0.514517 0.42942,-0.93822 0.42942,-0.490969 0.42941,-0.677541 0.42942,0.0092 0.42942,0.105753 0.42942,-0.122761 0.42941,-1.096774 0.42942,-0.02477 0.42942,-0.592044 0.42942,-0.540648 0.42941,-0.259786 0.42942,-0.361173 0.42942,-0.191039 0.42942,-0.251483 0.42941,-0.505257 0.42942,0.303616 0.42942,-1.485649 0.42941,0.06478 0.42942,-0.862679 0.42942,-0.471738 0.42942,0.211113 0.42941,0.556868 0.42942,0.452495 0.42942,0.224667 0.42942,1.014793 0.42941,0.8687 0.42942,0.40096 0.42942,-0.0484 0.42942,0.940055 0.42941,-0.819345 0.42942,-0.35837 0.42942,-0.602547 0.42942,-0.140876 0.42941,0.469189 0.42942,0.506477 0.42942,-0.312191 0.42942,0.08019 0.42941,-0.372207 0.42942,-1.381872 0.42942,-0.390807 0.42941,-0.23715 0.42942,-0.507761 0.42942,-1.945006 0.42942,-0.570217 0.42941,-1.947717 0.42942,-1.457672 0.42942,0.407508 0.42942,-2.927671 0.42941,-2.218983 0.42942,0.479637 0.42942,-1.904041 0.42942,-1.587888 0.42941,-0.998976 0.42942,-0.04048 0.42942,-1.691885 0.42942,0.382517 0.42941,-0.02223 0.42942,-1.383156 0.42942,-1.209849 0.42942,-1.091865 0.42941,-1.044038 0.42942,-0.658177 0.42942,1.158829 0.42942,1.676619 0.42941,1.046699 0.42942,0.25296 0.42942,-0.533429 0.42941,-0.372806 0.42942,-1.001557 0.42942,-1.106439 0.42942,-1.097304 0.42941,-1.089276 0.42942,-0.73813 0.42942,0.681441 0.42942,0.03482 0.42941,-0.630619 0.42942,-0.850537 0.42942,-1.924643 0.42942,1.21447 0.42941,-3.340725 0.42942,0.722434 0.42942,0.08404 0.42942,0.408328 0.42941,-0.261992 0.42942,-0.907819 0.42942,-0.785717 0.42941,-0.371991 0.42942,0.799929 0.42942,0.466557 0.42942,-0.09642 0.42941,1.166766 0.42942,0.0088 0.42942,-0.179253 0.42942,0.423519 0.42941,-0.303929 0.42942,0.41491 0.42942,0.655957 0.42942,0.248556 0.42941,0.618089 0.42942,1.332109 0.42942,1.037253 0.42942,0.515299 0.42941,-0.105332 0.42942,0.986344 0.42942,0.286926 0.42942,1.944619 0.42941,2.180997 0.42942,0.04637 0.42942,0.45078 0.42941,-0.573079 0.42942,0.368907 0.42942,-0.777719 0.42942,0.268623 0.42941,-0.644005 0.42942,-0.05151 0.42942,0.38394 0.42942,-0.393421 0.42941,-0.39208 0.42942,-1.154184 0.42942,-0.899016 0.42942,0.887869 0.42941,-0.557747 0.42942,-1.262673 0.42942,-0.772906 0.42942,0.05401 0.42941,-1.760134 0.42942,-0.745266 0.42942,-0.124903 0.42942,-0.28235 0.42941,0.785987 0.42942,0.261644 0.42942,0.361157 0.42941,-0.205608 0.42942,0.631189 0.42942,1.044049 0.42942,0.255701 0.42941,0.313976 0.42942,0.416612 0.42942,0.592076 0.42942,1.030422 0.42941,0.664689 0.42942,0.377176 0.42942,0.311961 0.42942,0.713916 0.42941,1.071943 0.42942,0.759749 0.42942,0.09716 0.42942,0.827949 0.42941,0.60677 0.42942,0.922648 0.42942,1.194001 0.42942,0.726335 0.42941,0.80142 0.42942,0.03503 0.42942,0.500397 0.42942,0.387808 0.42941,0.61319 0.42942,0.701692 0.42942,0.728433 0.42941,0.616221 0.42942,0.268898 0.42942,0.557173 0.42942,0.313182 0.42941,0.119545 0.42942,-0.07496 0.42942,0.208056 0.42942,0.389649 0.42941,0.119424 0.42942,-0.575063 0.42942,-0.360841 0.42942,0.579514 0.42941,0.687096 0.42942,0.154084 0.42942,0.03939 0.42942,0.201226 0.42941,0.582172 0.42942,0.205345 0.42942,0.365174 0.42941,0.398033 0.42942,0.410572 0.42942,0.409957 0.42942,0.09931 0.42941,0.732433 0.42942,0.220917 0.42942,0.287115 0.42942,0.02828 0.42941,0.07701 0.42942,0.08506 0.42942,0.157442 0.42942,0.468832 0.42941,0.383001 0.42942,0.188958 0.42942,0.493842 0.42942,0.194121 0.42941,0.269767 0.42942,0.284225 0.42942,0.145091 0.42942,0.313649 0.42941,0.319457 0.42942,0.199136 0.42942,0.190307 0.42941,0.06299 0.42942,0.04759 0.42942,-0.161444 0.42942,-0.1031 0.42941,-0.03115 0.42942,-0.22308 0.42942,-0.0082 0.42942,-0.139828 0.42941,-0.07326 0.42942,-0.07812 0.42942,-0.06738 0.42942,-0.06952 0.42941,0.0069 0.42942,0.05695 0.42942,0.0068 0.42942,0.05048 0.42941,0.02345 0.42942,0.05405 0.42942,0.05324 0.42942,0.03219 0.42941,0.02083 0.42942,0.06812 0.42942,0.08954 0.42941,0.0859 0.42942,0.06711 0.42942,0.07131 0.42942,0.05951 0.42941,0.08086 0.42942,0.05586 0.42942,0.05609 0.42942,0.0563 0.42941,0.06811 0.42942,0.09936 0.42942,0.06892 0.42942,0.06369 0.42941,0.06399 0.42942,0.07801 0.42942,0.08081 0.42942,0.09013 0.42941,0.100372 0.42942,0.06066 0.42942,0.07266 0.42942,0.08845 0.42941,0.08382 0.42942,0.08483 0.42942,0.08564 0.42941,0.08962 0.42942,0.09447 0.42942,0.07665 0.42942,0.08336 0.42941,0.08653 0.42942,0.08041 0.42942,0.0765 0.42942,0.07717 0.42941,0.08144 0.42942,0.07413 0.42942,0.07882 0.42942,0.08134 0.42941,0.08702 0.42942,0.08741 0.42942,0.08864 0.42942,0.09482 0.42941,0.09658 0.42942,0.0792 0.42942,0.08617 0.42942,0.0895 0.42941,0.09783 0.42942,0.109068 0.42942,0.109366 0.42941,0.08863 0.42942,0.05318 0.42942,0.09368 0.42942,0.09909 0.42941,0.08226 0.42942,0.09271 0.42942,0.09422 0.42942,0.09741 0.42941,0.09917 0.42942,0.08692 0.42942,0.09415 0.42942,0.081 0.42941,0.08219 0.42942,0.07375 0.42942,0.07426 0.42942,0.07694 0.42941,0.104049 0.42942,0.10886 0.42942,0.101306 0.42942,0.09866 0.42941,0.08355 0.42942,0.09351 0.42942,0.105384 0.42941,0.08417 0.42942,0.107916 0.42942,0.102185 0,25.616074 0,0 -0.42942,0.005 -0.42942,-0.0318 -0.42941,-0.0643 -0.42942,-0.12195 -0.42942,-0.13214 -0.42941,-0.0373 -0.42942,-0.0943 -0.42942,-0.0593 -0.42942,-0.0982 -0.42941,-0.0171 -0.42942,-0.006 -0.42942,-0.0683 -0.42942,-0.0903 -0.42941,-0.0259 -0.42942,-0.0917 -0.42942,-0.12531 -0.42942,-0.12205 -0.42941,-0.12223 -0.42942,-0.10927 -0.42942,-0.0483 -0.42942,-0.0502 -0.42941,-0.0505 -0.42942,-0.0267 -0.42942,0.006 -0.42942,0.006 -0.42941,-0.0482 -0.42942,0.0149 -0.42942,0.0149 -0.42941,0.0149 -0.42942,0.0149 -0.42942,0.0149 -0.42942,-0.0674 -0.42941,-0.004 -0.42942,-0.0313 -0.42942,-0.0307 -0.42942,-0.0682 -0.42941,-0.0528 -0.42942,-0.11405 -0.42942,-0.0189 -0.42942,0.002 -0.42941,-0.0793 -0.42942,-6.7e-4 -0.42942,0.0127 -0.42942,0.0128 -0.42941,0.0129 -0.42942,0.013 -0.42942,0.0132 -0.42942,0.0129 -0.42941,-0.0294 -0.42942,-0.0367 -0.42942,0.007 -0.42941,0.002 -0.42942,-0.006 -0.42942,-0.0957 -0.42942,-0.10058 -0.42941,-0.0626 -0.42942,0.0102 -0.42942,0.0103 -0.42942,-0.0256 -0.42941,-0.0332 -0.42942,-0.0382 -0.42942,-0.0927 -0.42942,0.013 -0.42941,0.009 -0.42942,-0.0393 -0.42942,-0.0248 -0.42942,-0.004 -0.42941,-0.0358 -0.42942,-0.004 -0.42942,0.008 -0.42942,0.0146 -0.42941,0.0129 -0.42942,-0.064 -0.42942,-0.0105 -0.42941,-0.0104 -0.42942,0.0181 -0.42942,0.019 -0.42942,0.0195 -0.42941,0.0174 -0.42942,-0.0205 -0.42942,-0.0837 -0.42942,-0.0122 -0.42941,-0.0158 -0.42942,-0.0255 -0.42942,-0.0335 -0.42942,-0.0861 -0.42941,0.003 -0.42942,0.10204 -0.42942,-0.20677 -0.42942,-0.3218 -0.42941,0.015 -0.42942,-0.0825 -0.42942,-0.0439 -0.42942,-0.003 -0.42941,-0.0461 -0.42942,0.12712 -0.42942,-0.005 -0.42941,0.19472 -0.42942,0.39039 -0.42942,0.58672 -0.42942,0.43698 -0.42941,0.48194 -0.42942,0.54022 -0.42942,0.75022 -0.42942,0.76732 -0.42941,0.86321 -0.42942,0.75149 -0.42942,1.01601 -0.42942,1.09756 -0.42941,0.933 -0.42942,0.81243 -0.42942,0.93352 -0.42942,0.96299 -0.42941,1.23163 -0.42942,1.42024 -0.42942,1.01897 -0.42942,1.17281 -0.42941,1.21801 -0.42942,1.17631 -0.42942,1.18147 -0.42941,1.10429 -0.42942,1.00487 -0.42942,1.1774 -0.42942,1.21143 -0.42941,1.11504 -0.42942,1.15543 -0.42942,1.22467 -0.42942,1.05665 -0.42941,1.46913 -0.42942,1.0343 -0.42942,1.31546 -0.42942,1.3439 -0.42941,1.65862 -0.42942,1.91701 -0.42942,1.72042 -0.42942,1.79413 -0.42941,1.29142 -0.42942,1.5713 -0.42942,1.88993 -0.42941,1.46657 -0.42942,1.95837 -0.42942,1.67113 -0.42942,1.86288 -0.42941,1.60862 -0.42942,1.97597 -0.42942,1.95135 -0.42942,1.94022 -0.42941,1.85097 -0.42942,0.42593 -0.42942,1.65862 -0.42942,2.12922 -0.42941,1.94888 -0.42942,0.88753 -0.42942,1.73413 -0.42942,1.72696 -0.42941,1.63968 -0.42942,1.38074 -0.42942,1.68562 -0.42942,1.71259 -0.42941,1.54112 -0.42942,1.40689 -0.42942,1.2583 -0.42942,0.70273 -0.42941,1.22534 -0.42942,0.8942 -0.42942,0.892 -0.42941,0.55531 -0.42942,0.80012 -0.42942,1.02356 -0.42942,-1.96468 -0.42941,-0.57199 -0.42942,0.8764 -0.42942,-1.32257 -0.42942,-1.37755 -0.42941,1.12696 -0.42942,-0.79646 -0.42942,-2.26227 -0.42942,-0.30515 -0.42941,0.57987 -0.42942,0.38658 -0.42942,-1.54599 -0.42942,0.0372 -0.42941,0.164 -0.42942,0.43286 -0.42942,-0.46681 -0.42942,0.68475 -0.42941,0.72402 -0.42942,1.29789 -0.42942,1.41379 -0.42941,1.41142 -0.42942,0.74313 -0.42942,0.52995 -0.42942,1.20819 -0.42941,1.22286 -0.42942,1.17405 -0.42942,1.11494 -0.42942,0.99774 -0.42941,1.89918 -0.42942,-0.15322 -0.42942,1.07306 -0.42942,2.2702 -0.42941,1.88775 -0.42942,0.32117 -0.42942,1.62264 -0.42942,1.0399 -0.42941,1.24557 -0.42942,1.01424 -0.42942,1.36742 -0.42942,-0.002 -0.42941,1.47226 -0.42942,-0.12941 -0.42942,-0.82365 -0.42941,-0.41363 -0.42942,-0.49982 -0.42942,-0.86508 -0.42942,-3.04445 -0.42941,-2.00437 -0.42942,-1.28519 -0.42942,-1.04881 -0.42942,-2.29765 -0.42941,-4.3309 -0.42942,-4.14126 -0.42942,-1.22051 -0.42942,-0.42636 -0.42941,-1.0722 -0.42942,-1.32058 -0.42942,1.61486 -0.42942,0.71555 -0.42941,2.34959 -0.42942,2.31478 -0.42942,1.47045 -0.42941,1.43159 -0.42942,2.2737 -0.42942,1.51573 -0.42942,2.68577 -0.42941,2.30606 -0.42942,1.80315 -0.42942,1.84582 -0.42942,2.63714 -0.42941,1.80376 -0.42942,1.18167 -0.42942,0.96142 -0.42942,0.56381 -0.42941,-0.0844 -0.42942,-0.2141 -0.42942,-0.59467 -0.42942,0.73648 -0.42941,1.13455 -0.42942,-1.34217 -0.42942,-1.2612 -0.42942,0.9998 -0.42941,-0.36929 -0.42942,1.1003 -0.42942,1.89303 -0.42942,0.95241 -0.42941,0.39671 -0.42942,0.82736 -0.42942,1.01985 -0.42941,0.67651 -0.42942,0.48144 -0.42942,0.46602 -0.42942,-0.21995 -0.42941,-0.19466 -0.42942,-0.30343 -0.42942,-0.13963 -0.42942,-1.47421 -0.42941,-0.21131 -0.42942,-0.12624 -0.42942,0.0323 -0.42942,0.53439 -0.42941,-0.56729 -0.42942,0.44325 -0.42942,-0.29997 -0.42942,0.31106 -0.42941,0.42948 -0.42942,-0.26696 -0.42942,-0.48112 -0.42942,0.78878 -0.42941,0.9279 -0.42942,0.95647 -0.42942,1.34984 -0.42941,0.59562 -0.42942,-0.11917 -0.42942,0.35375 -0.42942,0.44556 -0.42941,1.13488 -0.42942,0.91814 -0.42942,0.7561 -0.42942,0.47962 -0.42941,-0.0348 -0.42942,-0.5385 -0.42942,-0.62228 -0.42942,0.1084 -0.42941,-0.44164 -0.42942,-1.71362 -0.42942,-1.21816 -0.42942,0.20142 -0.42941,1.01057 -0.42942,1.91776 -0.42942,2.59491 -0.42942,2.57749 -0.42941,3.28377 -0.42942,2.00721 -0.42942,2.41575 -0.42941,2.58938 -0.42942,2.32579 -0.42942,2.93784 -0.42942,1.99495 -0.42941,2.87951 -0.42942,3.63758 -0.42942,2.17943 -0.42942,1.94608 -0.42941,2.22949 -0.42942,0.66226 -0.42942,0.93919 -0.42942,3.87911 -0.42941,-0.25705 -0.42942,1.93386 -0.42942,0.95385 -0.42942,2.56601 -0.42941,2.5033 -0.42942,-0.25625 -0.42942,-0.97928 -0.42941,-0.34297 -0.42942,1.08786 -0.42942,1.10699 -0.42942,0.92582 -0.42941,-0.0688 -0.42942,1.26988 -0.42942,0.0732 -0.42942,-0.007 -0.42941,1.09541 -0.42942,0.87449 -0.42942,-1.44347 -0.42942,-2.0672 -0.42941,-1.2791 -0.42942,0.37463 -0.42942,-0.23624 -0.42942,-0.10469 -0.42941,-0.829 -0.42942,-1.73074 -0.42942,-2.19205 -0.42942,-2.87922 -0.42941,-3.92679 -0.42942,-5.10421 -0.42942,-5.39309 -0.42942,-8.54298 -0.42941,-7.91838 -0.42942,-8.79581 -0.42942,-9.6463 -0.42941,-9.94325 -0.42942,-9.78072 -0.42942,-9.26348 -0.42942,-8.70799 -0.42941,-7.53622 -0.42942,-6.64934 -0.42942,-5.95543 -0.42942,-5.22668 -0.42941,-4.5776 -0.42942,-4.01647 -0.42942,-3.53377 -0.42942,-3.12979 -0.42941,-3.0466 -0.42942,-2.72181 -0.42942,-2.35068 -0.42942,-1.96423 -0.42941,-1.75668 -0.42942,-1.47863 -0.42942,-1.42199 -0.42942,-1.30726 -0.42941,-1.2109 -0.42942,-1.11734 -0.42942,-1.07241 -0.42941,-1.03379 -0.42942,-0.95372 -0.42942,-0.82174 -0.42942,-0.7704 -0.42941,-0.72414 -0.42942,-0.68232 -0.42942,-0.64441 -0.42942,-0.60996 -0.42941,-0.57954 -0.42942,-0.55253 -0.42942,-0.49027 -0.42942,-0.46458 -0.42941,-0.45172 -0.42942,-0.46022 -0.42942,-0.44117 -0.42942,-0.42373 -0.42941,-0.40905 -0.42942,-0.3938 -0.42942,-0.38082 -0.42942,-0.34758 -0.42941,-0.29393 -0.42942,-0.34177 -0.42942,-0.33368 -0.42941,-0.16676 -0.42942,-0.32483 -0.42942,-0.29882 -0.42942,-0.25245 -0.42941,-0.25186 -0.42942,-0.25505 -0.42942,-0.19213 -0.42942,-0.20155 -0.42941,-0.213 -0.42942,-0.1529 -0.42942,-0.18047 -0.42942,-0.205 -0.42941,-0.23993 -0.42942,-0.23811 -0.42942,-0.17456 -0.42942,-0.21389 -0.42941,-0.21005 -0.42942,-0.22547 -0.42942,-0.20429 -0.42942,-0.12713 -0.42941,-0.2062 -0.42942,-0.14002 -0.42942,-0.20934 -0.42941,-0.20639 -0.42942,-0.20353 -0.42942,-0.2008 -0.42942,-0.17284 -0.42941,-0.12578 -0.42942,-0.12601 -0.42942,-0.20197 -0.42942,-0.20051 -0.42941,-0.17509 -0.42942,-0.14245 -0.42942,-0.10765 -0.42942,-0.17561 -0.42941,-0.17357 -0.42942,-0.12979 -0.42942,-0.1808 -0.42942,-0.17748 -0.42941,-0.12391 -0.42942,-0.15277 -0.42942,-0.16261 -0.42942,-0.13767 -0.42941,-0.13655 -0.42942,-0.13135 -0.42942,-0.14243 -0.42941,-0.14517 -0.42942,-0.16418 -0.42942,-0.16015 -0.42942,-0.14227 -0.42941,-0.14183 -0.42942,-0.14217 -0.42942,-0.14221 -0.42942,-0.1418 -0.42941,-0.14141 -0.42942,-0.14123 -0.42942,-0.14926 -0.42942,-0.15969 -0.42941,-0.15888 -0.42942,-0.158 -0.42942,-0.15714 -0.42942,-0.15633 -0.42941,-0.15306 -0.42942,-0.13391 -0.42942,-0.13378 -0.42942,-0.13367 -0.42941,-0.13663 -0.42942,-0.14485 -0.42942,-0.14464 -0.42941,-0.128 -0.42942,-0.14492 -0.42942,-0.1451 -0.42942,-0.1454 -0.42941,-0.1274 -0.42942,-0.12311 -0.42942,-0.13226 -0.42942,-0.14806 -0.42941,-0.14857 -0.42942,-0.14861 -0.42942,-0.14814 -0.42942,-0.14769 -0.42941,-0.14659 -0.42942,-0.1383 -0.42942,-0.1368 -0.42942,-0.12835 -0.42941,-0.12841 -0.42942,-0.12847 -0.42942,-0.12852 -0.42942,-0.12859 -0.42941,-0.12865 -0.42942,-0.12872 -0.42942,-0.13587 -0.42941,-0.1371 -0.42942,-0.13652 -0.42942,-0.11944 -0.42942,-0.1228 -0.42941,-0.12337 -0.42942,-0.12492 -0.42942,-0.12861 -0.42942,-0.12869 -0.42941,-0.12876 -0.42942,-0.12915 -0.42942,-0.12943 -0.42942,-0.12948 -0.42941,-0.12428 -0.42942,-0.13271 -0.42942,-0.13151 -0.42941,-0.13455 -0.42942,-0.13275 -0.42942,-0.1324 -0.42942,-0.1296 -0.42942,-0.12512 -0.42941,-0.12715 -0.42942,-0.13455 -0.42942,-0.13461 -0.42941,-0.13455 -0.42942,-0.13422 -0.42942,-0.12777 -0.42942,-0.1278 -0.42941,-0.12785 -0.42942,-0.12485 -0.42942,-0.12247 -0.42942,-0.12653 -0.42941,-0.13237 -0.42942,-0.13272 -0.42942,-0.12849 -0.42942,-0.12791 -0.42941,-0.1279 -0.42942,-0.12968 -0.42942,-0.12964 -0.42941,-0.1296 -0.42942,-0.12954 -0.42942,-0.12949 -0.42942,-0.12942 -0.42942,-0.12936 -0.42941,-0.12927 -0.42942,-0.12919 -0.42942,-0.1291 -0.42941,-0.12156 -0.42942,-0.12099 -0.42942,-0.12066 -0.42942,-0.1257 -0.42941,-0.12635 -0.42942,-0.12621 -0.42942,-0.12606 -0.42942,-0.12029 -0.42941,-0.11905 -0.42942,-0.11867 -0.42942,-0.11901 -0.42942,-0.11871 -0.42941,-0.13184 -0.42942,-0.1327 -0.42942,-0.13244 -0.42942,-0.13215 -0.42941,-0.12795 -0.42942,-0.12426 -0.42942,-0.12403 -0.42942,-0.12379 -0.42941,-0.12354 -0.42942,-0.12127 -0.42942,-0.11204 -0.42941,-0.110652 -0.42942,-0.110206 -0.42942,-0.109758 -0.42942,-0.109306 -0.42941,-0.10885 -0.42942,-0.108391 -0.42942,-0.107928 -0.42942,-0.10746 -0.42941,-0.115459 -0.42942,-0.115889 -0.42942,-0.115793 -0.42942,-0.108068 -0.42941,-0.11117 -0.42942,-0.121149 -0.42942,-0.119208 -0.42942,-0.113907 -0.42941,-0.113492 -0.42942,-0.115521 -0.42942,-0.120737 -0.42942,-0.120355 -0.42941,-0.119967 -0.42942,-0.10161 -0.42942,-0.106198 -0.42941,-0.112953 -0.42942,-0.112579 -0.42942,-0.112148 -0.42942,-0.11171 -0.42941,-0.111266 -0.42942,-0.110817 -0.42942,-0.110362 -0.42942,-0.109942 -0.42941,-0.109818 -0.42942,-0.109348 -0.42942,-0.108873 -0.42942,-0.108391 -0.42941,-0.107905 -0.42942,-0.09977 -0.42942,-0.110729 -0.42941,-0.103286 -0.42942,-0.09002 -0.42942,-0.09656 -0.42942,-0.105972 -0.42942,-0.105635 -0.42941,-0.105282 -0.42942,-0.105098 -0.42942,-0.104574 -0.42941,-0.104042 -0.42942,-0.103505 -0.42942,-0.101262 -0.42942,-0.0864 -0.42941,-0.08578 -0.42942,-0.08516 -0.42942,-0.08453 -0.42942,-0.08394 -0.42941,-0.0836 -0.42942,-0.09663 -0.42942,-0.09973 -0.42942,-0.09917 -0.42941,-0.09899 -0.42942,-0.09855 -0.42942,-0.09796 -0.42942,-0.09736 -0.42941,-0.09674 -0.42942,-0.09248 -0.42942,-0.08866 -0.42942,-0.09771 -0.42941,-0.0891 -0.42942,-0.09671 -0.42942,-0.09605 -0.42941,-0.09383 -0.42942,-0.09003 -0.42942,-0.08917 -0.42942,-0.08381 -0.42941,-0.06232 -0.42942,-0.06047 -0.42942,-0.058 -0.42942,-0.05478 -0.42941,-0.06611 -0.42942,-0.08401 -0.42942,-0.07425 -0.42942,-0.06219 -0.42941,-0.07884 -0.42942,-0.06418 -0.42942,-0.06177 -0.42942,-0.01084 -0.42941,-0.02352 -0.42942,-0.04203 -0.42942,-0.04125 -0.42942,-0.02723 -0.42941,-0.02367 -0.42942,-0.01179 -0.42942,-0.01195 -0.42941,-0.04217 -0.42942,-0.03758 -0.42942,-0.0048 -0.42942,-0.01878 -0.42941,0.01271 -0.42942,0.05723 -0.42942,0.137787 -0.42942,0.149397 -0.42941,0.181468 -0.42942,0.251705 -0.42942,0.273046 -0.42942,0.375153 -0.42941,0.689502 -0.42942,0.435717 -0.42942,0.652128 -0.42941,0.676891 -0.42942,0.977112 -0.42942,1.098209 -0.42942,1.612686 -0.42942,1.42053 -0.42941,1.53197 -0.42942,1.92073 -0.42942,2.15901 -0.42941,2.05507 -0.42942,2.36724 -0.42942,2.48907 -0.42942,2.58506 -0.42941,2.52541 -0.42942,2.74497 -0.42942,2.67929 -0.42942,2.5592 -0.42941,2.43404 -0.42942,2.56172 -0.42942,2.64862 -0.42942,2.70452 -0.42941,2.65905 -0.42942,2.56966 -0.42942,2.69445 -0.42942,2.41019 -0.42941,2.35625 -0.42942,2.402 -0.42942,2.05008 -0.42942,1.94582 -0.42941,2.05766 -0.42942,2.01224 -0.42942,2.29775 -0.42941,2.1928 -0.42942,2.16521 -0.42942,2.14717 -0.42942,2.35982 -0.42941,2.47028 -0.42942,2.23124 -0.42942,2.06359 -0.42942,2.34254 -0.42941,2.24718 -0.42942,2.39146 -0.42942,2.37581 -0.42942,2.06843 -0.42941,2.08035 -0.42942,2.12283 -0.42942,2.10044 -0.42941,2.13775 -0.42942,2.43042 -0.42942,2.44389 -0.42942,2.40589 -0.42942,2.57536 -0.42941,2.52629 -0.42942,2.55141 -0.42942,2.57195 -0.42941,2.59163 -0.42942,2.61009 -0.42942,2.62693 -0.42942,2.64167 -0.42941,2.69495 -0.42942,2.77154 -0.42942,2.77739 -0.42942,2.77736 -0.42941,2.77037 -0.42942,2.75513 -0.42942,2.73009 -0.42942,2.69335 -0.42941,2.64242 -0.42942,2.57405 -0.42942,2.48401 -0.42942,2.36658 -0.42941,2.23588 -0.42942,2.06322 -0.42942,1.75597 -0.42942,1.63838 -0.42941,1.10238 -0.42942,0.86988 -0.42942,0.40978 -0.42941,0.63406 -0.42942,0.45814 -0.42942,1.52851 -0.42942,2.18205 -0.42941,2.51822 -0.42942,2.29276 -0.42942,2.52628 -0.42942,2.33887 -0.42941,2.48982 -0.42942,1.45685 -0.42942,1.27143 -0.42942,1.55439 -0.42941,1.50912 -0.42942,1.1583 -0.42942,1.08271 -0.42942,0.85595 -0.42941,0.56835 -0.42942,0.76236 -0.42942,0.18204 -0.42942,0.78458 -0.42941,0.46936 -0.42942,0.99855 -0.42942,0.96747 -0.42941,1.26974 -0.42942,1.22847 -0.42942,1.50935 -0.42942,2.10913 -0.42941,2.39498 -0.42942,2.16394 -0.42942,2.05061 -0.42942,1.94559 -0.42941,1.45087 -0.42942,1.07671 -0.42942,-0.49616 -0.42942,-1.0201 -0.42941,-1.12305 -0.42942,-2.22757 -0.42942,-3.39284 -0.42942,-2.46276 -0.42941,-1.60917 -0.42942,-1.25291 -0.42942,1.1429 -0.42942,1.63347 -0.42941,4.5374 -0.42942,9.32673 -0.42942,4.7157 -0.42941,0.058 -0.42942,-0.96729 -0.42942,-3.29193 -0.42942,-1.56664 -0.42941,-7.10936 -0.42942,-5.82127 -0.42942,-3.67419 -0.42942,-6.91297 -0.42941,-6.85048 -0.42942,-12.64353 -0.42942,-12.02185 -0.42942,-12.58442 -0.42941,-13.85989 -0.42942,-14.13549 -0.42942,-13.18924 -0.42941,-11.87376 -0.42942,-10.28871 -0.42942,-8.69978 -0.42942,-7.31609 -0.42941,-6.01957 -0.42942,-5.13944 -0.42942,-4.36586 -0.42942,-3.85353 -0.42941,-3.34616 -0.42942,-2.91305 -0.42942,-2.49192 -0.42942,-2.19953 -0.42941,-1.9617 -0.42942,-1.84103 -0.42942,-1.6865 -0.42942,-1.52182 -0.42941,-1.44243 -0.42942,-1.34073 -0.42942,-1.20486 -0.42942,-1.13186 -0.42941,-1.11386 -0.42942,-1.03537 -0.42942,-0.98765 -0.42942,-0.95755 -0.42941,-0.89252 -0.42942,-0.87433 -0.42942,-0.84671 -0.42941,-0.82601 -0.42942,-0.8089 -0.42942,-0.7732 -0.42942,-0.80265 -0.42941,-0.77642 -0.42942,-0.77048 -0.429419,-0.77751 -0.429418,-0.7526 -0.429417,-0.76565 -0.429417,-0.77038 -0.429418,-0.76576 -0.429417,-0.10514 -0.429417,-0.11333 -0.429418,-0.10634 -0.429417,-0.10184 -0.429418,-0.10106 -0.429417,-0.10122 -0.429417,-0.0999 -0.429418,-0.0987 -0.429417,-0.0794 -0.429418,-0.0745 -0.429417,-0.075 -0.429417,-0.0755 -0.429418,-0.0759 -0.429417,-0.0755 -0.429418,-0.0755 -0.429417,-0.0761 -0.429417,-0.0774 -0.429418,-0.0913 -0.429417,-0.0975 -0.429418,-0.0941 -0.429417,-0.0684 -0.429417,-0.0688 -0.429418,-0.0692 -0.429417,-0.0697 -0.429417,-0.0775 -0.429418,-0.0816 -0.429417,-0.0827 -0.429418,-0.0839 -0.429417,-0.0844 -0.429417,-0.0846 -0.429418,-0.0845 -0.429417,-0.0851 -0.429418,-0.0857 -0.429417,-0.0862 -0.429417,-0.073 -0.429418,-0.065 -0.429417,-0.0644 -0.429418,-0.064 -0.429417,-0.0744 -0.429417,-0.0889 -0.429418,-0.0892 -0.429417,-0.0891 -0.429418,-0.089 -0.429417,-0.0889 -0.429417,-0.0888 -0.429418,-0.089 -0.429417,-0.0891 -0.429417,-0.0894 -0.429418,-0.0894 -0.429417,-0.0527 -0.429418,-0.0705 -0.429417,-0.0984 -0.429417,-0.0596 -0.429418,-0.0841 -0.429417,-0.11294 -0.429418,-0.084 -0.429417,-0.0794 -0.429417,-0.0933 -0.429418,-0.0732 -0.429417,-0.0982 -0.429418,-0.0525 -0.429417,-0.0633 -0.429417,-0.071 -0.429418,-0.0724 -0.429417,-0.0877 -0.429418,-0.10334 -0.429417,-0.0655 -0.429417,-0.0728 -0.429418,-0.0597 -0.429417,-0.0537 -0.429417,-0.0709 -0.429418,-0.0746 -0.429417,-0.0949 -0.429418,-0.0863 -0.429417,-0.12998 -0.429417,-0.062 -0.429418,-0.0685 -0.429417,-0.0524 -0.429418,-0.0359 -0.429417,-0.0594 z" />
        </g>
      </g>
      <g
         id="g174"
         transform="matrix(1.25,0,0,-1.25,-93.018505,513.93771)">
        <g
           clip-path="url(#clipPath178)"
           id="g176">
          <path
             inkscape:connector-curvature="0"
             id="path182"
             style="fill:none;stroke:#426e86;stroke-width:2;stroke-linecap:round;stroke-linejoin:round;stroke-miterlimit:10;stroke-dasharray:none;stroke-opacity:1"
             d="m 63.72,104.72011 16.317861,-0.0245 12.882522,0.20614 5.153008,0.15509 3.005919,4.63904 6.44126,9.71071 1.71767,3.09261 1.28826,2.77067 0.85883,2.21351 0.85884,2.67182 0.85883,3.35462 0.85884,4.33068 0.85883,5.48646 3.43534,25.40444 2.5765,21.93079 2.14709,18.67811 2.14709,19.36114 3.00592,23.08242 1.28825,8.71238 0.85884,4.03821 0.85883,2.53986 0.42942,0.77244 0.42941,0.48351 0.42942,0.22357 0.42942,-0.0118 0.42942,-0.22477 0.42941,-0.41517 0.85884,-1.31402 0.85883,-1.84743 1.28826,-3.58567 1.28825,-4.3653 1.28825,-5.1063 1.71767,-7.91815 3.00592,-15.42614 5.15301,-26.37529 3.86476,-18.5471 6.87068,-32.42404 2.14708,-11.4431 2.14709,-12.67105 3.00592,-18.08592 1.28825,-6.59461 1.28826,-5.261432 0.85883,-2.682693 0.85883,-2.049721 0.85884,-1.494771 0.85884,-1.043821 0.85883,-0.699848 0.85883,-0.449758 1.28826,-0.362446 1.71767,-0.145479 2.14708,0.07841 3.86476,0.411833 6.87068,0.997534 8.58835,1.46834 9.44718,1.848047 9.8766,2.164244 11.16485,2.676786 15.45903,3.958605 35.64164,9.42901 7.72951,2.26153 4.72359,1.60908 3.00593,1.22978 2.14708,1.06616 1.71767,1.04721 1.71767,1.33882 1.28825,1.32031 0.85884,1.11474 0.85883,1.38478 0.85884,1.75171 0.85883,2.22582 0.85884,2.75579 2.14708,7.60004 0.85884,2.14379 0.85883,1.4662 1.28826,1.54129 1.71767,2.00949 3.00592,3.88964 2.5765,2.73679 1.28825,1.87025 2.14709,3.41958 0.85884,0.76623 0.85883,0.32967 0.85884,0.0496 2.14708,-0.0669 0.85884,0.18533 0.85883,0.42555 0.85884,0.70368 2.5765,2.59477 0.85884,0.41475 0.85883,0.17374 1.28825,-10e-4 1.28826,-0.22577 1.71766,-0.59968 3.43534,-1.36747 0.85884,-0.0392 2.14709,0.37133 0.85883,-0.31076 0.85884,-0.62183 5.58242,-4.88771 1.28825,-1.41964 3.86476,-4.7987 2.14709,-2.08166 1.28825,-1.01485 1.28825,-0.74853 1.71767,-0.86523 0.85884,-0.66808 1.28825,-1.29815 1.28825,-1.60319 2.14709,-3.18557 3.00592,-4.47522 1.71767,-2.15286 1.28825,-1.28771 5.58243,-4.71548 1.28825,-0.83235 1.28825,-0.54488 1.71767,-0.73142 0.85884,-0.58351 1.28825,-1.18561 2.14708,-2.3992 3.43534,-3.78574 3.00593,-2.91415 3.86475,-3.41335 2.14709,-1.64166 1.71767,-1.01044 1.71767,-0.75967 3.00592,-1.04635 4.29417,-1.29251 5.58243,-1.35563 1.71767,-0.25566 1.71767,-0.0467 2.14709,0.17145 4.29417,0.62962 10.30602,1.79313 12.88252,2.46599 6.44126,1.31927 0,0" />
        </g>
      </g>
    </g>
  </g>
</svg>
