<?xml version="1.0" encoding="UTF-8" standalone="no"?>
<!-- Created with Inkscape (http://www.inkscape.org/) -->

<svg
   xmlns:dc="http://purl.org/dc/elements/1.1/"
   xmlns:cc="http://creativecommons.org/ns#"
   xmlns:rdf="http://www.w3.org/1999/02/22-rdf-syntax-ns#"
   xmlns:svg="http://www.w3.org/2000/svg"
   xmlns="http://www.w3.org/2000/svg"
   xmlns:sodipodi="http://sodipodi.sourceforge.net/DTD/sodipodi-0.dtd"
   xmlns:inkscape="http://www.inkscape.org/namespaces/inkscape"
   width="139.3698mm"
   height="98.487915mm"
   viewBox="0 0 493.82999 348.97293"
   id="svg4351"
   version="1.1"
   inkscape:version="0.91 r13725"
   sodipodi:docname="features_excerpt.svg"
   inkscape:export-filename="/home/simen/Dropbox/phd/presentations/presentations/incf/figures/features_excerpt.png"
   inkscape:export-xdpi="300"
   inkscape:export-ydpi="300">
  <defs
     id="defs4353">
    <clipPath
       clipPathUnits="userSpaceOnUse"
       id="clipPath6804">
      <path
         d="m 63.72,42.0552 395.064,0 0,294.3864 -395.064,0 0,-294.3864 z"
         id="path6806"
         inkscape:connector-curvature="0" />
    </clipPath>
    <clipPath
       clipPathUnits="userSpaceOnUse"
       id="clipPath6784">
      <path
         d="m 63.72,42.0552 395.064,0 0,294.3864 -395.064,0 0,-294.3864 z"
         id="path6786"
         inkscape:connector-curvature="0" />
    </clipPath>
    <clipPath
       clipPathUnits="userSpaceOnUse"
       id="clipPath6794">
      <path
         d="m 63.72,42.0552 395.064,0 0,294.3864 -395.064,0 0,-294.3864 z"
         id="path6796"
         inkscape:connector-curvature="0" />
    </clipPath>
  </defs>
  <sodipodi:namedview
     id="base"
     pagecolor="#ffffff"
     bordercolor="#666666"
     borderopacity="1.0"
     inkscape:pageopacity="0.0"
     inkscape:pageshadow="2"
     inkscape:zoom="0.35"
     inkscape:cx="51.565926"
     inkscape:cy="100.48237"
     inkscape:document-units="px"
     inkscape:current-layer="layer1"
     showgrid="false"
     fit-margin-top="0"
     fit-margin-left="0"
     fit-margin-right="0"
     fit-margin-bottom="0"
     inkscape:window-width="702"
     inkscape:window-height="338"
     inkscape:window-x="4674"
     inkscape:window-y="505"
     inkscape:window-maximized="0" />
  <metadata
     id="metadata4356">
    <rdf:RDF>
      <cc:Work
         rdf:about="">
        <dc:format>image/svg+xml</dc:format>
        <dc:type
           rdf:resource="http://purl.org/dc/dcmitype/StillImage" />
        <dc:title></dc:title>
      </cc:Work>
    </rdf:RDF>
  </metadata>
  <g
     inkscape:label="Layer 1"
     inkscape:groupmode="layer"
     id="layer1"
     transform="translate(-196.14748,-283.87165)">
    <g
       style="display:inline;stroke-width:4;stroke-miterlimit:4;stroke-dasharray:none"
       id="g6780"
       transform="matrix(1.25,0,0,-1.25,116.49748,698.65141)">
      <g
         clip-path="url(#clipPath6784)"
         id="g6782"
         style="stroke-width:4;stroke-miterlimit:4;stroke-dasharray:none">
        <path
           inkscape:connector-curvature="0"
           id="path6788"
           style="fill:none;stroke:#f9ba32;stroke-width:4;stroke-linecap:round;stroke-linejoin:round;stroke-miterlimit:4;stroke-dasharray:none;stroke-opacity:1"
           d="m 63.72,77.95598 4.294174,1.154386 5.582426,1.26099 6.870678,1.306073 7.300096,1.1611 8.15893,1.06415 2.147087,0.242048 2.576509,5.35136 7.72951,15.339363 1.71767,4.2538 1.28825,3.78819 1.28825,4.58927 0.85884,3.70462 0.85883,4.43233 0.85884,5.43179 0.85883,6.8321 0.85884,8.83428 0.85883,11.74434 0.85884,15.98636 0.85883,21.9653 0.85884,29.3502 2.14708,81.58639 0.42942,9.42808 0.42942,6.16419 0.42941,3.55061 0.42942,1.69164 0.42942,0.46498 0.42942,-0.32084 0.42941,-0.8324 0.85884,-2.62774 0.85883,-3.47426 1.28826,-6.31594 1.71767,-9.9278 2.14708,-14.02494 3.43534,-24.22457 5.58243,-39.31634 3.86475,-25.50536 3.86476,-24.01909 6.01184,-37.005 2.14709,-14.88988 1.71767,-13.40259 2.5765,-22.396814 1.71767,-14.206452 0.85884,-5.8482 0.85883,-4.666783 0.85884,-3.461678 0.85883,-2.403677 0.85884,-1.576154 0.85883,-0.981081 0.85884,-0.576949 0.85883,-0.312154 1.28825,-0.169534 1.71768,0.06512 2.5765,0.352537 5.15301,0.980766 7.30009,1.618485 8.15893,2.043318 8.58835,2.391917 9.44718,2.870832 12.02369,3.906074 34.35339,11.31205 12.88252,3.91745 16.31786,4.705105 16.31787,4.746221 7.30009,2.349065 5.15301,1.869882 4.29417,1.791224 3.43534,1.67446 3.00592,1.73292 2.57651,1.77859 2.14709,1.78007 1.71767,1.69607 1.71767,2.02783 1.28825,1.81181 1.28825,2.14317 1.28825,2.58061 1.28825,3.17049 1.28826,3.98506 0.85883,3.27043 0.85884,3.92236 0.85883,4.76661 0.85884,5.87115 0.85883,7.32581 0.85883,9.24004 0.85884,11.72065 0.85883,14.79765 0.85884,18.24273 3.00592,71.94642 0.85884,11.60438 0.42941,3.48709 0.42942,2.1681 0.42942,1.07159 0.42942,0.19045 0.42941,-0.50391 0.42942,-1.04706 0.85884,-3.28193 0.85883,-4.37315 1.28825,-7.82945 2.14709,-14.86334 8.58835,-61.47881 3.43534,-22.28729 7.72951,-48.97466 2.14709,-15.85325 2.5765,-21.245327 1.71767,-13.801852 1.28825,-8.541905 0.85884,-4.400479 0.85883,-3.325249 0.85884,-2.371471 0.85883,-1.608172 0.85884,-1.041779 0.85883,-0.642789 0.85884,-0.370874 1.28825,-0.235289 1.71767,0.01698 2.5765,0.335577 4.29418,0.838166 6.87067,1.582269 8.15893,2.113072 8.58835,2.456766 9.8766,3.062554 13.74136,4.522596 4.72359,1.583121 0,0" />
      </g>
    </g>
    <g
       transform="matrix(1.25,0,0,-1.25,116.49748,698.65141)"
       style="display:inline;stroke-width:4;stroke-miterlimit:4;stroke-dasharray:none"
       clip-path="url(#clipPath6794)"
       id="g6792">
      <path
         inkscape:connector-curvature="0"
         id="path6798"
         style="fill:none;stroke:#e50000;stroke-width:4;stroke-linecap:round;stroke-linejoin:round;stroke-miterlimit:4;stroke-dasharray:none;stroke-opacity:1"
         d="m 63.72,77.95598 3.005922,1.202413 3.864756,1.272455 4.723592,1.292217 5.582426,1.277585 6.441261,1.228187 6.870678,1.074593 3.864756,0.50759 2.147089,4.420336 3.43534,6.381464 2.5765,4.98821 1.71767,3.85355 1.28825,3.42403 1.28826,4.15834 0.85883,3.37292 0.85884,4.0602 0.85883,5.01869 0.85884,6.38872 0.85883,8.40187 0.85883,11.44218 0.85884,16.12066 0.85883,23.22798 0.85884,32.86769 1.71767,78.39674 0.42942,12.58937 0.42941,7.97153 0.42942,4.34836 0.42942,1.98349 0.42941,0.59651 0.42942,-0.20093 0.42942,-0.6893 0.85883,-2.30094 0.85884,-3.15354 1.28825,-5.89665 1.28825,-6.97213 1.71767,-10.51969 2.57651,-17.42269 10.30601,-71.74981 3.86476,-24.67413 6.87068,-43.27131 1.71767,-12.31717 1.71767,-13.98877 1.71767,-16.08782 3.00592,-28.988724 0.85883,-6.130452 0.85884,-4.463127 0.85883,-2.92489 0.85884,-1.74543 0.85883,-0.956928 0.85884,-0.477483 0.85883,-0.203128 1.28826,-0.04335 2.14708,0.200728 5.15301,0.78873 8.15893,1.481587 8.15893,1.706774 8.58835,2.028485 9.01777,2.358006 10.73543,3.045267 16.74728,5.021513 18.46495,5.47309 12.4531,3.45428 12.02369,3.099086 12.4531,2.978392 15.45903,3.452704 26.19446,5.809606 7.30009,1.877503 5.15301,1.542908 3.86476,1.366233 3.43534,1.45817 2.5765,1.32319 2.14709,1.3229 2.14709,1.60888 1.71767,1.57656 1.71767,1.94016 1.28825,1.78336 1.28825,2.16893 1.28825,2.69508 1.28825,3.43295 0.85884,2.85444 0.85883,3.46779 0.85884,4.28069 0.85883,5.37675 0.85884,6.8786 0.85883,8.9616 0.85884,11.85609 0.85883,15.79169 0.85884,20.74961 1.28825,39.87639 1.28825,38.63155 0.42942,9.17664 0.42942,6.77002 0.42941,4.56115 0.42942,2.74405 0.42942,1.35524 0.42942,0.33483 0.42941,-0.40811 0.42942,-0.9567 0.85884,-3.07193 0.85883,-4.13817 1.28825,-7.50345 1.71767,-11.48003 3.43534,-25.01802 4.72359,-34.12873 3.43534,-23.23448 4.29418,-27.42186 3.43534,-22.15648 2.14708,-15.3513 1.71767,-14.00549 1.71767,-15.860604 2.57651,-24.16097 0.85883,-6.383591 0.85884,-4.885739 0.85883,-3.389975 0.85883,-2.150699 0.85884,-1.260103 0.85883,-0.682091 0.85884,-0.33162 1.28825,-0.14432 1.71767,0.101104 3.43534,0.495189 7.3001,1.32543 8.15893,1.704538 8.58834,2.026444 7.3001,1.891046 0,0" />
    </g>
    <g
       style="display:inline;stroke-width:4;stroke-miterlimit:4;stroke-dasharray:none"
       id="g6800"
       transform="matrix(1.25,0,0,-1.25,116.49748,698.65141)">
      <g
         clip-path="url(#clipPath6804)"
         id="g6802"
         style="stroke-width:4;stroke-miterlimit:4;stroke-dasharray:none">
        <path
           inkscape:connector-curvature="0"
           id="path6808"
           style="fill:none;stroke:#426e86;stroke-width:4;stroke-linecap:round;stroke-linejoin:round;stroke-miterlimit:4;stroke-dasharray:none;stroke-opacity:1"
           d="m 63.72,77.95598 9.017765,1.217136 11.164852,1.282482 12.023687,1.15486 2.147087,0.182811 3.435339,7.192464 8.58835,17.608737 1.71767,4.13367 1.71767,4.75045 1.28825,4.18871 1.28825,4.99115 1.28825,6.16662 0.85884,5.03968 0.85883,6.06533 0.85884,7.43585 0.85883,9.2762 0.85884,11.73628 0.85883,14.94678 0.85884,18.87687 1.28825,35.7755 1.71767,50.24596 0.85883,17.83321 0.42942,6.1663 0.42942,4.44362 0.42942,2.94565 0.42941,1.71001 0.42942,0.72813 0.42942,-0.034 0.42942,-0.61936 0.42941,-1.06897 0.85884,-3.11005 0.85883,-4.00838 1.28825,-7.11251 1.71767,-10.8157 2.57651,-17.81906 8.15893,-57.5595 3.43534,-22.17848 3.43534,-20.70481 4.72359,-26.89237 3.86475,-22.38619 2.57651,-16.15849 4.29417,-27.553668 1.28826,-6.933615 1.28825,-5.662375 0.85883,-3.01487 0.85884,-2.437639 0.85883,-1.9229 0.85884,-1.48486 0.85883,-1.124633 0.85884,-0.835281 0.85883,-0.606319 1.28825,-0.585221 1.28826,-0.304017 1.71766,-0.112923 2.14709,0.154843 2.57651,0.438346 3.43534,0.818308 4.72359,1.356413 6.44126,2.091052 7.72951,2.749597 9.44718,3.612335 12.88252,5.1932 30.05922,12.190538 21.47087,8.625536 6.44126,2.837403 5.15301,2.50972 3.86476,2.113 3.43534,2.13093 3.00592,2.1478 2.5765,2.13975 2.14709,2.07448 1.71767,1.9146 1.71767,2.21191 1.71767,2.60104 1.28825,2.28223 1.28825,2.64747 1.28826,3.11186 1.28825,3.70927 1.28825,4.48626 1.28825,5.50543 1.28825,6.84675 1.28826,8.59969 1.28825,10.83052 1.28825,13.49408 1.28825,16.25942 3.86476,52.37597 0.85883,7.74779 0.85884,5.19553 0.42942,1.64656 0.42941,1.04982 0.42942,0.49504 0.42942,-0.0116 0.42942,-0.46737 0.42941,-0.87217 0.85884,-2.76505 0.85883,-3.83709 1.28825,-7.14417 1.71767,-11.04096 8.58835,-57.59848 3.43534,-20.50269 14.17078,-80.817993 1.28825,-5.372318 1.28825,-4.257594 0.85883,-2.243422 0.85884,-1.817456 0.85883,-1.446736 0.85884,-1.133134 0.85883,-0.873137 1.28826,-0.9237 1.28825,-0.572856 1.28825,-0.318132 1.71767,-0.14493 1.71767,0.0746 2.5765,0.374652 3.00593,0.679539 4.29417,1.223751 5.58243,1.83658 7.30009,2.642191 9.44718,3.66348 15.45903,6.270616 19.7532,7.957914 9.8766,3.854477 0,0" />
      </g>
    </g>
  </g>
</svg>
