<?xml version="1.0" encoding="UTF-8" standalone="no"?>
<!-- Created with Inkscape (http://www.inkscape.org/) -->

<svg
   xmlns:dc="http://purl.org/dc/elements/1.1/"
   xmlns:cc="http://creativecommons.org/ns#"
   xmlns:rdf="http://www.w3.org/1999/02/22-rdf-syntax-ns#"
   xmlns:svg="http://www.w3.org/2000/svg"
   xmlns="http://www.w3.org/2000/svg"
   xmlns:sodipodi="http://sodipodi.sourceforge.net/DTD/sodipodi-0.dtd"
   xmlns:inkscape="http://www.inkscape.org/namespaces/inkscape"
   width="141.09187mm"
   height="76.03595mm"
   viewBox="0 0 499.93183 269.41872"
   id="svg4187"
   version="1.1"
   inkscape:version="0.91 r13725"
   sodipodi:docname="hh_excerpt.svg"
   inkscape:export-filename="/home/simen/Dropbox/phd/presentations/presentations/incf/figures/hh_excerpt.png"
   inkscape:export-xdpi="300"
   inkscape:export-ydpi="300">
  <defs
     id="defs4189" />
  <sodipodi:namedview
     id="base"
     pagecolor="#ffffff"
     bordercolor="#666666"
     borderopacity="1.0"
     inkscape:pageopacity="0.0"
     inkscape:pageshadow="2"
     inkscape:zoom="1.3316406"
     inkscape:cx="85.402812"
     inkscape:cy="80.991117"
     inkscape:document-units="px"
     inkscape:current-layer="layer1"
     showgrid="false"
     fit-margin-top="0"
     fit-margin-left="0"
     fit-margin-right="0"
     fit-margin-bottom="0"
     inkscape:window-width="1920"
     inkscape:window-height="1056"
     inkscape:window-x="0"
     inkscape:window-y="78"
     inkscape:window-maximized="1" />
  <metadata
     id="metadata4192">
    <rdf:RDF>
      <cc:Work
         rdf:about="">
        <dc:format>image/svg+xml</dc:format>
        <dc:type
           rdf:resource="http://purl.org/dc/dcmitype/StillImage" />
        <dc:title></dc:title>
      </cc:Work>
    </rdf:RDF>
  </metadata>
  <g
     inkscape:label="Layer 1"
     inkscape:groupmode="layer"
     id="layer1"
     transform="translate(-342.5394,-163.70579)">
    <path
       d="m 347.59817,428.08396 19.64099,-13.50091 22.0966,-15.50702 15.95873,-11.51139 11.04822,-8.28318 8.59226,-6.74374 7.3655,-6.08991 6.13747,-5.36911 6.13874,-5.72087 4.91075,-4.89804 4.90949,-5.25102 4.91076,-5.68728 4.90948,-6.22043 3.68277,-5.08946 3.68273,-5.51951 3.68277,-6.0216 3.68273,-6.60695 3.68273,-7.28063 3.68277,-8.0511 3.68273,-8.91996 3.68273,-9.8682 3.68276,-10.86869 3.68274,-11.85306 3.68273,-12.7168 12.27625,-43.74698 2.45478,-7.57761 2.45471,-6.64426 2.456,-5.50087 1.22676,-2.26571 1.22799,-1.92023 1.22798,-1.56346 1.2268,-1.19808 1.22799,-0.829 1.22798,-0.45861 1.22676,-0.0945 1.22799,0.26595 1.22675,0.61519 1.22799,0.9508 1.22799,1.27392 1.22798,1.5784 1.2268,1.86679 2.45597,4.5227 2.45474,5.44866 2.45475,6.22169 2.45478,6.85305 3.68399,11.18314 4.90946,16.03521 7.36549,25.20495 17.18578,59.06632 8.59345,28.53824 6.13751,19.37351 3.68273,10.88115 3.68277,10.06456 2.456,6.1434 2.45475,5.61856 2.45474,5.04285 2.45598,4.433 2.45478,3.8062 2.45474,3.1823 2.45597,2.57843 2.45475,2.00993 2.45478,1.48708 2.45474,1.01652 2.45597,0.60154 2.45475,0.24183 2.45478,-0.067 2.45597,-0.32774 2.45475,-0.54675 3.68273,-1.15049 3.68276,-1.45849 4.91076,-2.28906 6.13751,-3.2333 7.36546,-4.20962 11.04823,-6.66477 17.18574,-10.73561 17.18574,-11.03065 13.50297,-8.98452 11.04949,-7.70194 8.59226,-6.30742 7.36546,-5.70096 7.3655,-6.03774 6.13751,-5.343 6.13874,-5.67237 6.13751,-6.0477 6.13747,-6.4628 6.13874,-6.90775 6.13748,-7.35268 6.13751,-7.76033 9.8215,-12.94799 7.36424,-9.60968 4.91075,-5.98433 3.68273,-4.07778 3.68277,-3.5918 2.45474,-2.06316 1.22799,-0.91845 0,0"
       style="display:inline;fill:none;stroke:#426e86;stroke-width:10;stroke-linecap:round;stroke-linejoin:round;stroke-miterlimit:10;stroke-dasharray:none;stroke-opacity:1;filter:url(#filter39605-0)"
       id="path156"
       inkscape:connector-curvature="0" />
  </g>
</svg>
