<?xml version="1.0" encoding="UTF-8" standalone="no"?>
<!-- Created with Inkscape (http://www.inkscape.org/) -->

<svg
   xmlns:dc="http://purl.org/dc/elements/1.1/"
   xmlns:cc="http://creativecommons.org/ns#"
   xmlns:rdf="http://www.w3.org/1999/02/22-rdf-syntax-ns#"
   xmlns:svg="http://www.w3.org/2000/svg"
   xmlns="http://www.w3.org/2000/svg"
   xmlns:sodipodi="http://sodipodi.sourceforge.net/DTD/sodipodi-0.dtd"
   xmlns:inkscape="http://www.inkscape.org/namespaces/inkscape"
   width="120.95232mm"
   height="60.542252mm"
   viewBox="0 0 428.5712 214.51978"
   id="svg4918"
   version="1.1"
   inkscape:version="0.91 r13725"
   sodipodi:docname="probabalistic.svg"
   inkscape:export-filename="/home/simen/Dropbox/phd/presentations/presentations/incf/figures/probabalistic_parameters.png"
   inkscape:export-xdpi="300"
   inkscape:export-ydpi="300">
  <defs
     id="defs4920">
    <clipPath
       clipPathUnits="userSpaceOnUse"
       id="clipPath88">
      <path
         d="m 63.72,42.0552 395.064,0 0,294.3864 -395.064,0 0,-294.3864 z"
         id="path90"
         inkscape:connector-curvature="0" />
    </clipPath>
    <clipPath
       clipPathUnits="userSpaceOnUse"
       id="clipPath104">
      <path
         d="m 63.72,42.0552 395.064,0 0,294.3864 -395.064,0 0,-294.3864 z"
         id="path106"
         inkscape:connector-curvature="0" />
    </clipPath>
    <filter
       inkscape:collect="always"
       style="color-interpolation-filters:sRGB"
       id="filter39605-0-36-6-4">
      <feBlend
         inkscape:collect="always"
         mode="darken"
         in2="BackgroundImage"
         id="feBlend39607-90-7-4-7" />
    </filter>
    <clipPath
       id="clipPath384-36-91-4-7"
       clipPathUnits="userSpaceOnUse">
      <path
         inkscape:connector-curvature="0"
         id="path386-5-2-6-8"
         d="m 90,54 558,0 0,432 -558,0 0,-432 z" />
    </clipPath>
    <clipPath
       id="clipPath394-09-56-4-67"
       clipPathUnits="userSpaceOnUse">
      <path
         inkscape:connector-curvature="0"
         id="path396-99-2-5-5"
         d="m 90,54 558,0 0,432 -558,0 0,-432 z" />
    </clipPath>
    <clipPath
       id="clipPath404-3-5-0-3"
       clipPathUnits="userSpaceOnUse">
      <path
         inkscape:connector-curvature="0"
         id="path406-8-3-9-01"
         d="m 90,54 558,0 0,432 -558,0 0,-432 z" />
    </clipPath>
    <filter
       inkscape:collect="always"
       style="color-interpolation-filters:sRGB"
       id="filter39605-0-8-1-0">
      <feBlend
         inkscape:collect="always"
         mode="darken"
         in2="BackgroundImage"
         id="feBlend39607-90-2-9-7" />
    </filter>
    <filter
       inkscape:collect="always"
       style="color-interpolation-filters:sRGB"
       id="filter39605-3-0-9-1-8-5">
      <feBlend
         inkscape:collect="always"
         mode="darken"
         in2="BackgroundImage"
         id="feBlend39607-5-6-3-2-6-8" />
    </filter>
    <filter
       inkscape:collect="always"
       style="color-interpolation-filters:sRGB"
       id="filter39605-0-36-6">
      <feBlend
         inkscape:collect="always"
         mode="darken"
         in2="BackgroundImage"
         id="feBlend39607-90-7-4" />
    </filter>
    <filter
       inkscape:collect="always"
       style="color-interpolation-filters:sRGB"
       id="filter39605-5-1-6">
      <feBlend
         inkscape:collect="always"
         mode="darken"
         in2="BackgroundImage"
         id="feBlend39607-7-9-3" />
    </filter>
    <filter
       inkscape:collect="always"
       style="color-interpolation-filters:sRGB"
       id="filter39605-5-4-7-99">
      <feBlend
         inkscape:collect="always"
         mode="darken"
         in2="BackgroundImage"
         id="feBlend39607-7-6-5-5" />
    </filter>
    <filter
       inkscape:collect="always"
       style="color-interpolation-filters:sRGB"
       id="filter39605-0-36-6-9">
      <feBlend
         inkscape:collect="always"
         mode="darken"
         in2="BackgroundImage"
         id="feBlend39607-90-7-4-0" />
    </filter>
    <filter
       inkscape:collect="always"
       style="color-interpolation-filters:sRGB"
       id="filter39605-0-36-6-9-6">
      <feBlend
         inkscape:collect="always"
         mode="darken"
         in2="BackgroundImage"
         id="feBlend39607-90-7-4-0-3" />
    </filter>
  </defs>
  <sodipodi:namedview
     id="base"
     pagecolor="#ffffff"
     bordercolor="#666666"
     borderopacity="1.0"
     inkscape:pageopacity="0.0"
     inkscape:pageshadow="2"
     inkscape:zoom="2.5332382"
     inkscape:cx="168.47291"
     inkscape:cy="113.71082"
     inkscape:document-units="px"
     inkscape:current-layer="layer1"
     showgrid="false"
     fit-margin-top="0"
     fit-margin-left="0"
     fit-margin-right="0"
     fit-margin-bottom="0"
     inkscape:window-width="1920"
     inkscape:window-height="1056"
     inkscape:window-x="0"
     inkscape:window-y="78"
     inkscape:window-maximized="1" />
  <metadata
     id="metadata4923">
    <rdf:RDF>
      <cc:Work
         rdf:about="">
        <dc:format>image/svg+xml</dc:format>
        <dc:type
           rdf:resource="http://purl.org/dc/dcmitype/StillImage" />
        <dc:title />
      </cc:Work>
    </rdf:RDF>
  </metadata>
  <g
     inkscape:label="Layer 1"
     inkscape:groupmode="layer"
     id="layer1"
     transform="translate(-187.47445,-278.25575)">
    <g
       id="g39916-4-4"
       transform="matrix(0.11135105,0,0,0.11114321,236.35818,353.66369)"
       style="display:inline;fill:none;fill-opacity:1;stroke:#000000;stroke-width:17.97800255;stroke-miterlimit:4;stroke-dasharray:none;stroke-opacity:1;filter:url(#filter39605-0-36-6)"
       inkscape:export-xdpi="300"
       inkscape:export-ydpi="300">
      <g
         transform="translate(710.04261,22.455328)"
         style="fill:none;fill-opacity:1;stroke:#000000;stroke-width:17.97800255;stroke-miterlimit:4;stroke-dasharray:none;stroke-opacity:1;filter:url(#filter39605-5-1-6)"
         id="g39695-2-3-5">
        <g
           id="g38178-7-13-0-8"
           transform="translate(-33.612455,-3.2528183)"
           style="fill:none;fill-opacity:1;stroke:#000000;stroke-width:17.97800255;stroke-miterlimit:4;stroke-dasharray:none;stroke-opacity:1">
          <path
             style="fill:none;fill-opacity:1;fill-rule:evenodd;stroke:#000000;stroke-width:17.97800255;stroke-linecap:butt;stroke-linejoin:miter;stroke-miterlimit:4;stroke-dasharray:none;stroke-opacity:1"
             d="m 1153.45,304.56451 c 27.8621,-0.65456 25.0565,27.66344 24.8735,38.19251 -0.5672,21.67627 21.0591,31.2549 43.3625,31.79147"
             id="path37729-0-7-2-7-57"
             inkscape:connector-curvature="0"
             sodipodi:nodetypes="ccc" />
        </g>
        <g
           id="g38178-7-7-7-9-33"
           transform="matrix(1,0,0,-1,-33.851804,746.00175)"
           style="fill:none;fill-opacity:1;stroke:#000000;stroke-width:17.97800255;stroke-miterlimit:4;stroke-dasharray:none;stroke-opacity:1;filter:url(#filter39605-5-1-6)" />
      </g>
      <g
         transform="matrix(1,0,0,-1,710.47375,764.94387)"
         style="fill:none;fill-opacity:1;stroke:#000000;stroke-width:17.97800255;stroke-miterlimit:4;stroke-dasharray:none;stroke-opacity:1;filter:url(#filter39605-5-4-7-99)"
         id="g39695-2-8-2-8">
        <g
           id="g38178-7-13-5-9-9"
           transform="translate(-33.612455,-3.2528183)"
           style="fill:none;fill-opacity:1;stroke:#000000;stroke-width:17.97800255;stroke-miterlimit:4;stroke-dasharray:none;stroke-opacity:1">
          <path
             style="fill:none;fill-opacity:1;fill-rule:evenodd;stroke:#000000;stroke-width:17.97800255;stroke-linecap:butt;stroke-linejoin:miter;stroke-miterlimit:4;stroke-dasharray:none;stroke-opacity:1"
             d="m 1153.45,304.56451 c 27.8621,-0.65456 25.0565,27.66344 24.8735,38.19251 -0.5672,21.67627 21.0591,31.2549 43.3625,31.79147"
             id="path37729-0-7-2-2-11-5"
             inkscape:connector-curvature="0"
             sodipodi:nodetypes="ccc" />
        </g>
        <g
           id="g38178-7-7-7-3-7-5"
           transform="matrix(1,0,0,-1,-33.851804,746.00175)"
           style="fill:none;fill-opacity:1;stroke:#000000;stroke-width:17.97800255;stroke-miterlimit:4;stroke-dasharray:none;stroke-opacity:1;filter:url(#filter39605-5-4-7-99)" />
      </g>
    </g>
    <g
       style="display:inline;filter:url(#filter39605-0-8)"
       id="g14096"
       transform="matrix(0.36110866,0,0,0.36110865,-330.20289,101.0137)"
       inkscape:export-xdpi="300"
       inkscape:export-ydpi="300">
      <g
         inkscape:export-ydpi="300"
         inkscape:export-xdpi="300"
         style="stroke-width:12.75347137;stroke-miterlimit:4;stroke-dasharray:none;filter:url(#filter39605-0-36-6)"
         transform="matrix(0.30835885,0,0,0.30778329,1517.0598,752.31138)"
         id="g39809-5-8">
        <rect
           ry="78.943108"
           y="197.68954"
           x="1315.8125"
           height="331.56107"
           width="536.81311"
           id="rect37800-0-6"
           style="opacity:0.98999999;fill:none;fill-opacity:1;stroke:#000000;stroke-width:17.97800255;stroke-linejoin:round;stroke-miterlimit:4;stroke-dasharray:none;stroke-dashoffset:0;stroke-opacity:1" />
        <text
           sodipodi:linespacing="125%"
           id="text37819-7-0"
           y="409.31805"
           x="1378.1511"
           style="font-style:normal;font-variant:normal;font-weight:500;font-stretch:normal;font-size:120.1785202px;line-height:125%;font-family:Raleway;-inkscape-font-specification:'Raleway, Medium';text-align:start;letter-spacing:0px;word-spacing:0px;writing-mode:lr-tb;text-anchor:start;fill:#000000;fill-opacity:1;stroke:none;stroke-width:12.75347137;stroke-linecap:butt;stroke-linejoin:miter;stroke-miterlimit:4;stroke-dasharray:none;stroke-opacity:1"
           xml:space="preserve"><tspan
             id="tspan37823-8-3"
             y="409.31805"
             x="1378.1511"
             sodipodi:role="line"
             style="font-style:normal;font-variant:normal;font-weight:500;font-stretch:normal;font-size:134.83502197px;line-height:125%;font-family:Raleway;-inkscape-font-specification:'Raleway, Medium';text-align:start;writing-mode:lr-tb;text-anchor:start">Model</tspan></text>
      </g>
      <rect
         inkscape:export-ydpi="300"
         inkscape:export-xdpi="300"
         style="opacity:0.98999999;fill:none;fill-opacity:1;stroke:#000000;stroke-width:14.4849205;stroke-linejoin:round;stroke-miterlimit:4;stroke-dasharray:none;stroke-dashoffset:0;stroke-opacity:1;filter:url(#filter39605-0-36-6)"
         id="rect37800-6-3"
         width="560.21136"
         height="565.54407"
         x="1514.317"
         y="43.57436"
         ry="102.13858"
         transform="matrix(0.38274023,0,0,0.38198634,1318.77,693.76182)" />
      <text
         inkscape:export-ydpi="300"
         inkscape:export-xdpi="300"
         xml:space="preserve"
         style="font-style:normal;font-variant:normal;font-weight:500;font-stretch:normal;font-size:69.08713531px;line-height:125%;font-family:Raleway;-inkscape-font-specification:'Raleway, Medium';text-align:start;letter-spacing:0px;word-spacing:0px;writing-mode:lr-tb;text-anchor:start;fill:#000000;fill-opacity:1;stroke:none;stroke-width:1px;stroke-linecap:butt;stroke-linejoin:miter;stroke-opacity:1;filter:url(#filter39605-0-36-6)"
         x="1604.403"
         y="266.45279"
         id="text4392-6"
         sodipodi:linespacing="125%"
         transform="matrix(0.35706632,0,0,0.35639984,1354.7511,656.95619)"><tspan
           sodipodi:role="line"
           id="tspan4394-1"
           x="1604.403"
           y="266.45279"
           style="font-style:normal;font-variant:normal;font-weight:500;font-stretch:normal;font-size:69.08713531px;line-height:125%;font-family:Raleway;-inkscape-font-specification:'Raleway, Medium';text-align:start;writing-mode:lr-tb;text-anchor:start">Uncertainty</tspan><tspan
           id="tspan4199-8"
           sodipodi:role="line"
           x="1604.403"
           y="352.81171"
           style="font-style:normal;font-variant:normal;font-weight:500;font-stretch:normal;font-size:69.08713531px;line-height:125%;font-family:Raleway;-inkscape-font-specification:'Raleway, Medium';text-align:start;writing-mode:lr-tb;text-anchor:start">quantification</tspan></text>
    </g>
    <g
       style="display:inline;stroke:#000000;stroke-width:16.30727005;stroke-miterlimit:4;stroke-dasharray:none;stroke-opacity:1;filter:url(#filter39605-3-0-9-1-8-5)"
       id="g39859-1-6-1-3-8-2"
       transform="matrix(0.11017388,0,0,0.13652714,201.61646,347.87282)"
       inkscape:export-xdpi="300"
       inkscape:export-ydpi="300">
      <path
         style="fill:none;fill-rule:evenodd;stroke:#000000;stroke-width:16.30727005;stroke-linecap:butt;stroke-linejoin:miter;stroke-miterlimit:4;stroke-dasharray:none;stroke-opacity:1"
         d="m 1135.1449,-152.48195 c 67.5498,0.3381 55.8257,65.861826 55.1906,405.77296 0.3253,78.37029 29.6645,104.07138 101.8143,103.26087"
         id="path37729-5-1-8-3-2-2"
         inkscape:connector-curvature="0"
         sodipodi:nodetypes="ccc" />
      <path
         transform="matrix(1,0,0,-1,-1.7619432,760.7907)"
         style="fill:none;fill-rule:evenodd;stroke:#000000;stroke-width:16.30727005;stroke-linecap:butt;stroke-linejoin:miter;stroke-miterlimit:4;stroke-dasharray:none;stroke-opacity:1;filter:url(#filter39605-3-0-9-1-8-5)"
         d="m 1136.8853,-104.80984 c 67.5498,0.3381 55.8257,65.86183 55.1906,405.77297 0.3253,78.37029 29.6645,104.07138 101.8143,103.26087"
         id="path37729-10-6-2-7-4-3-0"
         inkscape:connector-curvature="0"
         sodipodi:nodetypes="ccc" />
    </g>
    <g
       style="display:inline;filter:url(#filter39605-0-8)"
       inkscape:export-ydpi="300"
       inkscape:export-xdpi="300"
       id="g11567"
       transform="matrix(0.36110866,0,0,0.36110865,-336.44152,107.26691)">
      <g
         inkscape:export-ydpi="300"
         inkscape:export-xdpi="300"
         transform="matrix(0.38544864,0,0,-0.38472916,1510.9073,637.89031)"
         id="g380-9-7-89"
         style="display:inline;fill:#fcd990;fill-opacity:1;stroke:#f9ba32;stroke-width:21.57359886;stroke-miterlimit:4;stroke-dasharray:none;stroke-opacity:1;filter:url(#filter39605-0-36-6-4)">
        <g
           id="g382-7-0-0"
           clip-path="url(#clipPath384-36-91-4-7)"
           style="fill:#fcd990;fill-opacity:1;stroke:#f9ba32;stroke-width:21.57359886;stroke-miterlimit:4;stroke-dasharray:none;stroke-opacity:1">
          <path
             d="m 90,54.096358 22.34234,0.233297 14.52253,0.364372 11.17117,0.500704 8.93693,0.616461 7.81982,0.760525 6.7027,0.866918 6.14415,1.012926 5.58558,1.139843 5.02703,1.235871 5.02703,1.465847 4.46847,1.522305 4.46847,1.754162 4.46846,2.011801 3.90991,1.992787 3.90991,2.229155 3.90991,2.484367 3.90991,2.758517 3.90991,3.051457 3.90991,3.362769 3.90991,3.691736 3.90991,4.03731 3.90991,4.398093 3.90991,4.772309 3.90991,5.15782 3.90991,5.55204 3.90991,5.95204 3.90991,6.35446 3.90991,6.75557 4.46847,8.20469 4.46847,8.70626 4.46847,9.1846 5.02703,10.8646 5.58558,12.66278 6.14414,14.52969 7.81982,19.14602 20.66667,51.01337 5.58559,13.00416 4.46847,9.89964 4.46846,9.34015 3.90991,7.63462 3.35136,6.09274 3.35135,5.63536 2.79279,4.32046 2.79279,3.95795 2.79279,3.57728 2.7928,3.18004 2.23423,2.24797 2.23424,1.97741 2.23423,1.70088 2.23423,1.41918 2.23424,1.13314 2.23423,0.84363 2.23424,0.55153 2.23423,0.25775 2.23424,-0.0368 2.23423,-0.33131 2.23424,-0.62475 2.23423,-0.91629 2.23423,-1.205 2.23424,-1.49004 2.23423,-1.77054 2.23424,-2.04564 2.23423,-2.31458 2.79279,-3.26073 2.7928,-3.6548 2.79279,-4.03195 2.79279,-4.39065 3.35135,-5.71418 3.35135,-6.16527 3.90991,-7.71083 3.90991,-8.2067 4.46847,-9.89964 5.02703,-11.67744 6.14414,-14.84099 10.05406,-24.97762 11.17117,-27.61578 6.7027,-15.98237 5.58559,-12.77634 5.02702,-10.98271 5.02703,-10.42949 4.46847,-8.76749 4.46847,-8.26838 4.46847,-7.75313 3.90991,-6.35446 3.90991,-5.95204 3.90991,-5.55204 3.90991,-5.15782 3.90991,-4.772309 3.90991,-4.398093 3.90991,-4.03731 3.90991,-3.691736 3.90991,-3.362769 3.90991,-3.051457 3.90991,-2.758517 3.9099,-2.484367 3.90991,-2.229155 3.90991,-1.992787 4.46847,-2.011801 4.46847,-1.754162 4.46847,-1.522305 5.02703,-1.465847 5.02703,-1.235871 5.58558,-1.139843 6.14414,-1.012926 6.70271,-0.866918 7.26126,-0.713822 8.37838,-0.598254 10.05405,-0.484383 12.28829,-0.358823 16.75676,-0.246697 10.05405,-0.07338 0,0"
             style="fill:#fcd990;fill-opacity:1;stroke:#f9ba32;stroke-width:21.57359886;stroke-linecap:round;stroke-linejoin:round;stroke-miterlimit:4;stroke-dasharray:none;stroke-opacity:1"
             id="path388-3-5-7"
             inkscape:connector-curvature="0" />
        </g>
      </g>
      <g
         inkscape:export-ydpi="300"
         inkscape:export-xdpi="300"
         transform="matrix(0.38544864,0,0,-0.38472916,1499.8303,1017.1518)"
         id="g390-2-1-8"
         style="display:inline;fill:#ff6262;fill-opacity:1;stroke:#e50000;stroke-width:21.57359886;stroke-miterlimit:4;stroke-dasharray:none;stroke-opacity:1;filter:url(#filter39605-0-36-6-4)">
        <g
           id="g392-7-1-0"
           clip-path="url(#clipPath394-09-56-4-67)"
           style="fill:#ff6262;fill-opacity:1;stroke:#e50000;stroke-width:21.57359886;stroke-miterlimit:4;stroke-dasharray:none;stroke-opacity:1">
          <path
             d="m 90,54.000255 67.58559,0.108532 15.63963,0.239469 10.05406,0.353601 7.81982,0.478124 6.7027,0.629464 5.58559,0.742222 5.02702,0.89137 4.46847,1.015938 3.90991,1.098689 3.90991,1.330816 3.35135,1.354891 3.35135,1.580981 3.35136,1.836237 3.35135,2.122756 2.79279,2.011724 2.79279,2.253825 2.7928,2.51673 2.79279,2.800967 2.79279,3.10689 2.79279,3.434626 2.7928,3.784064 2.79279,4.154813 2.79279,4.546172 2.7928,4.957114 2.79279,5.38623 2.79279,5.83177 2.79279,6.29154 2.7928,6.76296 3.35135,8.74979 3.35135,9.44929 3.35135,10.1491 3.35135,10.84013 3.90991,13.4947 3.90991,14.3613 4.46847,17.38438 4.46847,18.28713 5.58558,23.85726 8.37838,36.9637 8.93694,39.18914 5.02703,21.03512 3.90991,15.47851 3.35135,12.47046 3.35135,11.59329 2.79279,8.89835 2.79279,8.13022 2.23424,5.90725 2.23423,5.34327 2.23424,4.75126 2.23423,4.13406 1.67568,2.68211 1.67567,2.31433 1.67568,1.93953 1.67567,1.5588 1.67568,1.1733 1.11712,0.56621 1.11712,0.39249 1.11711,0.21822 1.11712,0.0437 1.11712,-0.13096 1.11711,-0.30541 1.11712,-0.47943 1.11712,-0.6528 1.67567,-1.30226 1.67568,-1.6863 1.67567,-2.06517 1.67568,-2.43776 1.67568,-2.80295 1.67567,-3.15967 2.23424,-4.75126 2.23423,-5.34327 2.23423,-5.90725 2.7928,-8.13022 2.79279,-8.89835 2.79279,-9.59661 3.35135,-12.33345 3.90991,-15.3473 4.46847,-18.53626 5.58559,-24.18468 17.87387,-78.24816 5.02703,-20.62815 4.46847,-17.38438 3.90991,-14.3613 3.90991,-13.4947 3.35135,-10.84013 3.35135,-10.1491 3.35135,-9.44929 3.35135,-8.74979 3.35135,-8.05865 2.7928,-6.19857 2.79279,-5.74144 2.79279,-5.29904 2.79279,-4.873415 2.7928,-4.466296 2.79279,-4.078987 2.79279,-3.712455 2.7928,-3.367335 2.79279,-3.043961 2.79279,-2.742393 2.7928,-2.462457 2.79279,-2.203761 3.35135,-2.332097 3.35135,-2.023653 3.35135,-1.747779 3.35135,-1.502483 3.90991,-1.480697 3.90991,-1.226802 4.46847,-1.138708 4.46847,-0.904572 5.02703,-0.790288 5.58558,-0.654949 6.7027,-0.55245 7.81982,-0.41697 10.05406,-0.30602 14.52252,-0.196772 26.25225,-0.08832 40.21622,-0.0112 0,0"
             style="fill:#ff6262;fill-opacity:1;stroke:#e50000;stroke-width:21.57359886;stroke-linecap:round;stroke-linejoin:round;stroke-miterlimit:4;stroke-dasharray:none;stroke-opacity:1"
             id="path398-3-0-3"
             inkscape:connector-curvature="0" />
        </g>
      </g>
      <g
         inkscape:export-ydpi="300"
         inkscape:export-xdpi="300"
         transform="matrix(0.38544864,0,0,-0.38472916,1499.8303,789.87229)"
         id="g400-3-3-1"
         style="display:inline;fill:#729fb9;fill-opacity:1;stroke:#426e86;stroke-width:21.57359886;stroke-miterlimit:4;stroke-dasharray:none;stroke-opacity:1;filter:url(#filter39605-0-36-6-4)">
        <g
           id="g402-8-00-03"
           clip-path="url(#clipPath404-3-5-0-3)"
           style="fill:#729fb9;fill-opacity:1;stroke:#426e86;stroke-width:21.57359886;stroke-miterlimit:4;stroke-dasharray:none;stroke-opacity:1">
          <path
             d="m 90,59.470073 8.378378,1.280534 7.819822,1.416906 7.26126,1.532091 7.26126,1.764134 6.7027,1.854885 6.70271,2.091638 6.14414,2.141294 6.14414,2.370011 6.14415,2.612191 6.14414,2.866961 6.14415,3.13315 5.58558,3.087698 5.58559,3.322086 5.58558,3.561196 5.58559,3.80337 6.14414,4.464792 6.14415,4.75794 6.14414,5.04649 6.14415,5.32684 6.7027,6.11662 6.7027,6.41486 7.26126,7.25465 7.81982,8.12026 9.4955,10.19913 13.4054,14.77982 17.87388,19.68035 8.93693,9.48727 7.26126,7.38387 6.14415,5.95007 5.58558,5.12512 5.58559,4.81481 5.02703,4.03738 4.46847,3.33182 4.46846,3.07224 4.46847,2.79682 3.90991,2.20975 3.90991,1.97874 3.90991,1.73967 3.90991,1.49348 3.90991,1.24112 3.90991,0.98363 3.90991,0.72204 3.35135,0.40837 3.35136,0.2127 3.35135,0.0164 3.35135,-0.18001 3.35135,-0.37583 3.35135,-0.5705 3.90991,-0.90926 3.90991,-1.16803 3.90991,-1.42196 3.90991,-1.67002 3.90991,-1.91122 3.90991,-2.14462 4.46847,-2.72562 4.46847,-3.00483 4.46846,-3.26847 5.02703,-3.97132 5.02703,-4.2585 5.58558,-5.03602 6.14415,-5.86555 6.7027,-6.72847 7.81982,-8.19488 9.4955,-10.29935 35.74775,-39.13748 8.37837,-8.64323 7.26126,-7.18462 6.70271,-6.34259 6.7027,-6.03854 6.14414,-5.25141 6.14415,-4.96845 6.14414,-4.678305 6.14415,-4.384486 6.14414,-4.090228 5.58559,-3.465087 5.58558,-3.227678 6.14415,-3.282638 6.14414,-3.010827 6.14414,-2.749664 6.14415,-2.500489 6.14414,-2.264338 6.14415,-2.041953 6.7027,-1.990703 6.7027,-1.761801 7.26126,-1.672107 7.26127,-1.449036 7.81981,-1.337124 5.58559,-0.827923 0,0"
             style="fill:#729fb9;fill-opacity:1;stroke:#426e86;stroke-width:21.57359886;stroke-linecap:round;stroke-linejoin:round;stroke-miterlimit:4;stroke-dasharray:none;stroke-opacity:1"
             id="path408-7-4-6"
             inkscape:connector-curvature="0" />
        </g>
      </g>
      <text
         inkscape:export-ydpi="300"
         inkscape:export-xdpi="300"
         transform="matrix(0.73125661,0,0,0.72989164,801.19189,230.28374)"
         sodipodi:linespacing="125%"
         id="text4180-5-7"
         y="581.24683"
         x="930.37793"
         style="font-style:normal;font-variant:normal;font-weight:normal;font-stretch:normal;font-size:39.41013336px;line-height:125%;font-family:Raleway;-inkscape-font-specification:'Raleway, Normal';text-align:start;letter-spacing:0px;word-spacing:0px;writing-mode:lr-tb;text-anchor:start;display:inline;fill:#000000;fill-opacity:1;stroke:none;stroke-width:1px;stroke-linecap:butt;stroke-linejoin:miter;stroke-opacity:1;filter:url(#filter39605-0-8-1-0)"
         xml:space="preserve"><tspan
           style="font-style:normal;font-variant:normal;font-weight:normal;font-stretch:normal;font-size:42.64328003px;line-height:125%;font-family:Raleway;-inkscape-font-specification:'Raleway, Normal';text-align:start;writing-mode:lr-tb;text-anchor:start"
           y="581.24683"
           x="930.37793"
           id="tspan4182-4-32"
           sodipodi:role="line">Uncertain parameter 1</tspan></text>
      <text
         inkscape:export-ydpi="300"
         inkscape:export-xdpi="300"
         transform="matrix(0.73125661,0,0,0.72989164,801.11264,252.43774)"
         sodipodi:linespacing="125%"
         id="text4184-2-2"
         y="760.862"
         x="929.05774"
         style="font-style:normal;font-variant:normal;font-weight:normal;font-stretch:normal;font-size:39.41013336px;line-height:125%;font-family:Raleway;-inkscape-font-specification:'Raleway, Normal';text-align:start;letter-spacing:0px;word-spacing:0px;writing-mode:lr-tb;text-anchor:start;display:inline;fill:#000000;fill-opacity:1;stroke:none;stroke-width:1px;stroke-linecap:butt;stroke-linejoin:miter;stroke-opacity:1;filter:url(#filter39605-0-8-1-0)"
         xml:space="preserve"><tspan
           style="font-style:normal;font-variant:normal;font-weight:normal;font-stretch:normal;font-size:42.64328003px;line-height:125%;font-family:Raleway;-inkscape-font-specification:'Raleway, Normal';text-align:start;writing-mode:lr-tb;text-anchor:start"
           y="760.862"
           x="929.05774"
           id="tspan4186-4-1"
           sodipodi:role="line">Uncertain parameter 2</tspan></text>
      <text
         inkscape:export-ydpi="300"
         inkscape:export-xdpi="300"
         transform="matrix(0.73125661,0,0,0.72989164,801.09493,274.59174)"
         sodipodi:linespacing="125%"
         id="text4188-99-5"
         y="1043.1088"
         x="928.76215"
         style="font-style:normal;font-variant:normal;font-weight:normal;font-stretch:normal;font-size:42.64328003px;line-height:125%;font-family:Raleway;-inkscape-font-specification:'Raleway, Normal';text-align:start;letter-spacing:0px;word-spacing:0px;writing-mode:lr-tb;text-anchor:start;display:inline;fill:#000000;fill-opacity:1;stroke:none;stroke-width:1px;stroke-linecap:butt;stroke-linejoin:miter;stroke-opacity:1;filter:url(#filter39605-0-8-1-0)"
         xml:space="preserve"><tspan
           style="font-style:normal;font-variant:normal;font-weight:normal;font-stretch:normal;font-size:42.64328003px;line-height:125%;font-family:Raleway;-inkscape-font-specification:'Raleway, Normal';text-align:start;writing-mode:lr-tb;text-anchor:start"
           y="1043.1088"
           x="928.76215"
           id="tspan4190-9-3"
           sodipodi:role="line">Uncertain parameter 3</tspan></text>
    </g>
    <g
       style="display:inline;filter:url(#filter39605-0-8)"
       id="g4762"
       transform="matrix(0.36110866,0,0,0.36110865,-330.20289,85.407856)">
      <g
         id="g84"
         transform="matrix(1.1609957,0,0,-1.1609958,2087.7521,1083.7582)">
        <g
           clip-path="url(#clipPath88)"
           id="g86">
          <path
             inkscape:connector-curvature="0"
             id="path92"
             style="fill:#426e86;fill-opacity:0.6;fill-rule:nonzero;stroke:none"
             d="m 64.70766,71.798987 0,-16.362587 0.98766,0.758055 0.98766,0.758266 0.98766,0.758525 0.98766,0.744248 0.98766,0.754882 0.98766,0.74734 0.98766,0.766595 0.98766,0.765912 0.98766,0.755086 0.98766,0.774881 0.98766,0.772375 0.98766,0.744046 0.98766,0.761755 0.98766,0.763524 0.98766,0.768939 0.98766,0.7635 0.98766,0.772257 0.98766,0.769102 0.98766,0.77468 0.98766,0.77175 0.98766,0.790668 0.98766,0.778978 0.98766,0.782853 0.98766,0.76964 0.98766,0.768567 0.98766,0.779794 0.98766,0.766151 0.98766,0.779651 0.98766,0.784688 0.98766,0.778135 0.98766,0.787996 0.98766,0.791935 0.98766,0.79671 0.98766,0.778774 0.98766,0.792819 0.98766,0.791004 0.98766,0.802649 0.98766,0.783005 0.98766,0.802219 0.98766,0.791071 0.98766,0.775473 0.98766,0.78903 0.98766,0.833867 0.98766,0.797622 0.98766,0.784795 0.98766,0.801579 0.98766,0.809272 0.98766,0.808517 0.98766,0.828998 0.98766,0.81798 0.98766,0.816197 0.98766,0.814552 0.98766,0.833489 0.98766,0.837577 0.98766,0.842732 0.98766,0.846016 0.98766,0.831809 0.98766,0.85459 0.98766,0.84765 0.98766,0.85673 0.98766,0.85593 0.98766,0.87107 0.98766,0.88373 0.98766,0.8752 0.98766,0.88837 0.98766,0.90975 0.98766,0.90469 0.98766,0.90974 0.98766,0.94252 0.98766,0.93589 0.98766,0.90436 0.98766,0.97018 0.98766,0.96318 0.98766,0.947 0.98766,0.99335 0.98766,1.00365 0.98766,1.02087 0.98766,1.04035 0.98766,1.02286 0.98766,1.0518 0.98766,1.05086 0.98766,1.06081 0.98766,1.07452 0.98766,1.11362 0.98766,1.12389 0.98766,1.14474 0.98766,1.18933 0.98766,1.19904 0.98766,1.21467 0.98766,1.21605 0.98766,1.2619 0.98766,1.2497 0.98766,1.23945 0.98766,1.2962 0.98766,1.24573 0.98766,1.35545 0.98766,1.36404 0.98766,1.34519 0.98766,1.40321 0.98766,1.41379 0.98766,1.47385 0.98766,1.46552 0.98766,1.51435 0.98766,1.53899 0.98766,1.56755 0.98766,1.54286 0.98766,1.57921 0.98766,1.58666 0.98766,1.65803 0.98766,1.74739 0.98766,1.66129 0.98766,1.66812 0.98766,1.81131 0.98766,1.77207 0.98766,1.73412 0.98766,1.8004 0.98766,1.80397 0.98766,1.90743 0.98766,1.82065 0.98766,1.92866 0.98766,1.96774 0.98766,1.89474 0.98766,1.92968 0.98766,1.82362 0.98766,2.05768 0.98766,1.96828 0.98766,1.92907 0.98766,1.92136 0.98766,2.02154 0.98766,1.95747 0.98766,1.89841 0.98766,2.07886 0.98766,1.9123 0.98766,1.86611 0.98766,1.72384 0.98766,1.75491 0.98766,1.8114 0.98766,1.63189 0.98766,1.57692 0.98766,1.56435 0.98766,1.33358 0.98766,1.48349 0.98766,1.20564 0.98766,1.06186 0.98766,1.02645 0.98766,0.95976 0.98766,0.79599 0.98766,0.46601 0.98766,0.51781 0.98766,0.35768 0.98766,0.12411 0.98766,0.1883 0.98766,-0.0364 0.98766,-0.33509 0.98766,-0.34577 0.98766,-0.46894 0.98766,-0.56308 0.98766,-0.82517 0.98766,-0.87814 0.98766,-1.14001 0.98766,-1.25029 0.98766,-1.51661 0.98766,-1.60018 0.98766,-1.73309 0.98766,-1.87494 0.98766,-2.29511 0.98766,-2.19604 0.98766,-2.32481 0.98766,-2.48393 0.98766,-2.6949 0.98766,-2.72276 0.98766,-2.87883 0.98766,-2.9526 0.98766,-2.89378 0.98766,-3.10395 0.98766,-3.04546 0.98766,-3.20651 0.98766,-3.1744 0.98766,-3.32886 0.98766,-3.27566 0.98766,-3.35346 0.98766,-3.33819 0.98766,-3.35589 0.98766,-3.44245 0.98766,-3.37538 0.98766,-3.36005 0.98766,-3.37746 0.98766,-3.46134 0.98766,-3.40322 0.98766,-3.46709 0.98766,-3.3296 0.98766,-3.44886 0.98766,-3.3602 0.98766,-3.38705 0.98766,-3.28003 0.98766,-3.36919 0.98766,-3.26385 0.98766,-3.17572 0.98766,-3.1129 0.98766,-3.08671 0.98766,-2.96942 0.98766,-2.886174 0.98766,-2.730562 0.98766,-2.734944 0.98766,-2.581159 0.98766,-2.610344 0.98766,-2.30504 0.98766,-2.237043 0.98766,-2.220089 0.98766,-2.029907 0.98766,-1.818682 0.98766,-1.739219 0.98766,-1.567381 0.98766,-1.555417 0.98766,-1.387724 0.98766,-1.316821 0.98766,-1.079971 0.98766,-1.030094 0.98766,-0.90677 0.98766,-0.804147 0.98766,-0.771247 0.98766,-0.594534 0.98766,-0.553333 0.98766,-0.41741 0.98766,-0.377786 0.98766,-0.237612 0.98766,-0.16225 0.98766,-0.0441 0.98766,0.06215 0.98766,0.025 0.98766,0.07601 0.98766,0.07129 0.98766,0.241352 0.98766,0.289753 0.98766,0.286302 0.98766,0.307994 0.98766,0.386433 0.98766,0.412695 0.98766,0.441388 0.98766,0.429731 0.98766,0.500904 0.98766,0.471602 0.98766,0.480462 0.98766,0.544448 0.98766,0.5539 0.98766,0.573818 0.98766,0.545729 0.98766,0.604923 0.98766,0.617362 0.98766,0.604592 0.98766,0.610044 0.98766,0.651709 0.98766,0.647893 0.98766,0.651445 0.98766,0.648242 0.98766,0.646639 0.98766,0.652778 0.98766,0.668572 0.98766,0.671389 0.98766,0.683946 0.98766,0.683072 0.98766,0.675363 0.98766,0.675655 0.98766,0.688067 0.98766,0.693407 0.98766,0.680234 0.98766,0.704483 0.98766,0.695704 0.98766,0.691589 0.98766,0.675137 0.98766,0.707682 0.98766,0.688998 0.98766,0.70287 0.98766,0.704067 0.98766,0.713162 0.98766,0.685787 0.98766,0.715527 0.98766,0.684035 0.98766,0.691959 0.98766,0.694702 0.98766,0.70414 0.98766,0.700595 0.98766,0.68047 0.98766,0.710083 0.98766,0.71125 0.98766,0.696886 0.98766,0.733471 0.98766,0.695223 0.98766,0.709733 0.98766,0.706055 0.98766,0.706975 0.98766,0.710084 0.98766,0.71196 0.98766,0.69743 0.98766,0.69842 0.98766,0.70335 0.98766,0.71479 0.98766,0.72646 0.98766,0.70787 0.98766,0.7251 0.98766,0.71494 0.98766,0.72971 0.98766,0.73604 0.98766,0.73049 0.98766,0.74469 0.98766,0.74291 0.98766,0.73652 0.98766,0.74909 0.98766,0.77087 0.98766,0.73784 0.98766,0.72799 0.98766,0.72078 0.98766,0.74532 0.98766,0.75491 0.98766,0.75985 0.98766,0.73789 0.98766,0.74498 0.98766,0.75748 0.98766,0.76404 0.98766,0.7656 0.98766,0.76081 0.98766,0.78024 0.98766,0.78587 0.98766,0.75863 0.98766,0.76548 0.98766,0.8095 0.98766,0.78739 0.98766,0.78046 0.98766,0.78615 0.98766,0.79585 0.98766,0.78839 0.98766,0.83343 0.98766,0.80972 0.98766,0.77664 0.98766,0.82384 0.98766,0.78715 0.98766,0.81247 0.98766,0.82637 0.98766,0.7767 0.98766,0.81897 0.98766,0.84981 0.98766,0.8244 0.98766,0.81716 0.98766,0.80603 0.98766,0.85106 0.98766,0.79669 0.98766,0.829 0.98766,0.81424 0.98766,0.83834 0.98766,0.79631 0.98766,0.89141 0.98766,0.84567 0.98766,0.80895 0.98766,0.79398 0.98766,0.80528 0.98766,0.81931 0.98766,0.79865 0.98766,0.84109 0.98766,0.80515 0.98766,0.81276 0.98766,0.82779 0.98766,0.78544 0.98766,0.76055 0.98766,0.76638 0.98766,0.80259 0.98766,0.89219 0.98766,0.76811 0.98766,0.81502 0.98766,0.78104 0.98766,0.73662 0.98766,0.80678 0.98766,0.68369 0.98766,0.72514 0.98766,0.68517 0.98766,0.70653 0.98766,0.69677 0.98766,0.62141 0.98766,0.63581 0.98766,0.67869 0.98766,0.5561 0.98766,0.65335 0.98766,0.56463 0.98766,0.54598 0.98766,0.45242 0.98766,0.4016 0.98766,0.53916 0.98766,0.46146 0.98766,0.35871 0.98766,0.40312 0.98766,0.39761 0.98766,0.39091 0.98766,0.26375 0.98766,0.22877 0.98766,0.26664 0.98766,0.24371 0.98766,0.0481 0.98766,0.14285 0.98766,0.14567 0.98766,0.0432 0,78.97147 0,0 -0.98766,0.81218 -0.98766,0.68024 -0.98766,0.89897 -0.98766,0.50185 -0.98766,0.63567 -0.98766,0.12113 -0.98766,0.53501 -0.98766,0.51373 -0.98766,0.16082 -0.98766,0.32306 -0.98766,0.0752 -0.98766,-0.13976 -0.98766,0.0615 -0.98766,-0.21549 -0.98766,-0.55452 -0.98766,-0.67661 -0.98766,-0.69691 -0.98766,-0.86518 -0.98766,-0.6792 -0.98766,-1.07172 -0.98766,-1.18492 -0.98766,-1.33129 -0.98766,-1.47679 -0.98766,-1.76953 -0.98766,-1.61751 -0.98766,-1.98085 -0.98766,-2.04244 -0.98766,-2.06476 -0.98766,-1.80236 -0.98766,-2.07436 -0.98766,-2.23058 -0.98766,-2.67503 -0.98766,-2.32381 -0.98766,-2.37229 -0.98766,-2.64344 -0.98766,-2.26265 -0.98766,-2.50169 -0.98766,-2.29372 -0.98766,-2.5982 -0.98766,-2.2938 -0.98766,-2.37325 -0.98766,-2.35413 -0.98766,-2.32075 -0.98766,-2.40376 -0.98766,-2.4445 -0.98766,-2.2576 -0.98766,-2.22834 -0.98766,-2.06254 -0.98766,-2.09807 -0.98766,-2.15841 -0.98766,-1.99474 -0.98766,-2.15457 -0.98766,-1.92627 -0.98766,-1.99323 -0.98766,-1.83567 -0.98766,-1.78781 -0.98766,-1.82682 -0.98766,-1.6991 -0.98766,-1.67031 -0.98766,-1.60371 -0.98766,-1.62043 -0.98766,-1.64036 -0.98766,-1.52649 -0.98766,-1.46081 -0.98766,-1.50935 -0.98766,-1.45043 -0.98766,-1.42564 -0.98766,-1.36115 -0.98766,-1.26421 -0.98766,-1.31114 -0.98766,-1.26139 -0.98766,-1.18581 -0.98766,-1.16104 -0.98766,-1.16647 -0.98766,-1.13415 -0.98766,-1.11625 -0.98766,-1.16097 -0.98766,-1.09737 -0.98766,-1.05525 -0.98766,-1.00566 -0.98766,-0.99418 -0.98766,-0.97928 -0.98766,-0.9561 -0.98766,-0.99917 -0.98766,-0.94286 -0.98766,-0.94252 -0.98766,-0.91678 -0.98766,-0.89051 -0.98766,-0.88859 -0.98766,-0.86347 -0.98766,-0.87342 -0.98766,-0.87889 -0.98766,-0.84257 -0.98766,-0.83204 -0.98766,-0.82032 -0.98766,-0.84408 -0.98766,-0.8118 -0.98766,-0.78584 -0.98766,-0.82805 -0.98766,-0.77488 -0.98766,-0.76474 -0.98766,-0.73769 -0.98766,-0.8002 -0.98766,-0.74684 -0.98766,-0.73554 -0.98766,-0.73704 -0.98766,-0.75382 -0.98766,-0.73549 -0.98766,-0.72094 -0.98766,-0.71325 -0.98766,-0.71523 -0.98766,-0.72189 -0.98766,-0.65963 -0.98766,-0.69968 -0.98766,-0.70784 -0.98766,-0.67257 -0.98766,-0.68816 -0.98766,-0.6661 -0.98766,-0.6704 -0.98766,-0.69696 -0.98766,-0.64828 -0.98766,-0.64332 -0.98766,-0.642 -0.98766,-0.63057 -0.98766,-0.65955 -0.98766,-0.63355 -0.98766,-0.63469 -0.98766,-0.65859 -0.98766,-0.65514 -0.98766,-0.59658 -0.98766,-0.63244 -0.98766,-0.6121 -0.98766,-0.64661 -0.98766,-0.59133 -0.98766,-0.55922 -0.98766,-0.58457 -0.98766,-0.58887 -0.98766,-0.52162 -0.98766,-0.54076 -0.98766,-0.50647 -0.98766,-0.54804 -0.98766,-0.53864 -0.98766,-0.532902 -0.98766,-0.54129 -0.98766,-0.484214 -0.98766,-0.469623 -0.98766,-0.466148 -0.98766,-0.414419 -0.98766,-0.425363 -0.98766,-0.412727 -0.98766,-0.39049 -0.98766,-0.387193 -0.98766,-0.343547 -0.98766,-0.299667 -0.98766,-0.260788 -0.98766,-0.209373 -0.98766,-0.202359 -0.98766,-0.185843 -0.98766,-0.121301 -0.98766,-0.05214 -0.98766,-0.04626 -0.98766,-0.0021 -0.98766,0.112064 -0.98766,0.102081 -0.98766,0.253968 -0.98766,0.201494 -0.98766,0.38486 -0.98766,0.43345 -0.98766,0.479978 -0.98766,0.532305 -0.98766,0.684419 -0.98766,0.73566 -0.98766,0.784071 -0.98766,0.916225 -0.98766,1.026592 -0.98766,1.02946 -0.98766,1.15647 -0.98766,1.22285 -0.98766,1.39072 -0.98766,1.48399 -0.98766,1.46583 -0.98766,1.64026 -0.98766,1.70235 -0.98766,1.85806 -0.98766,1.93676 -0.98766,2.05975 -0.98766,2.11197 -0.98766,2.30271 -0.98766,2.39401 -0.98766,2.32715 -0.98766,2.5275 -0.98766,2.39564 -0.98766,2.60839 -0.98766,2.5782 -0.98766,2.60155 -0.98766,2.65716 -0.98766,2.73494 -0.98766,2.77359 -0.98766,2.77558 -0.98766,2.81415 -0.98766,2.92493 -0.98766,2.77896 -0.98766,2.82889 -0.98766,2.93373 -0.98766,3.02976 -0.98766,2.89838 -0.98766,3.01822 -0.98766,3.11362 -0.98766,3.16636 -0.98766,3.08424 -0.98766,3.18418 -0.98766,3.2265 -0.98766,3.24784 -0.98766,3.36221 -0.98766,3.34463 -0.98766,3.28307 -0.98766,3.34041 -0.98766,3.31773 -0.98766,3.49591 -0.98766,3.26477 -0.98766,3.61478 -0.98766,3.58102 -0.98766,3.56301 -0.98766,3.50688 -0.98766,3.62759 -0.98766,3.61594 -0.98766,3.62152 -0.98766,3.71084 -0.98766,3.66788 -0.98766,3.67149 -0.98766,3.74231 -0.98766,3.78234 -0.98766,3.81721 -0.98766,3.74278 -0.98766,3.62871 -0.98766,3.51908 -0.98766,3.64451 -0.98766,3.58431 -0.98766,3.48156 -0.98766,3.25556 -0.98766,3.18814 -0.98766,3.05193 -0.98766,3.31607 -0.98766,3.09487 -0.98766,2.92267 -0.98766,2.82837 -0.98766,2.41089 -0.98766,2.33891 -0.98766,2.36037 -0.98766,1.72863 -0.98766,1.94147 -0.98766,1.32185 -0.98766,1.58031 -0.98766,1.20288 -0.98766,0.81954 -0.98766,0.58692 -0.98766,0.0954 -0.98766,0.0162 -0.98766,-0.20601 -0.98766,-0.83932 -0.98766,-0.97696 -0.98766,-1.11782 -0.98766,-1.9565 -0.98766,-2.07569 -0.98766,-2.65807 -0.98766,-2.80165 -0.98766,-3.64761 -0.98766,-3.72692 -0.98766,-3.86912 -0.98766,-4.18959 -0.98766,-4.23742 -0.98766,-4.80714 -0.98766,-4.80401 -0.98766,-5.03956 -0.98766,-5.02638 -0.98766,-5.3687 -0.98766,-5.37656 -0.98766,-5.06503 -0.98766,-5.24194 -0.98766,-5.17186 -0.98766,-5.02511 -0.98766,-4.76156 -0.98766,-4.65522 -0.98766,-4.62734 -0.98766,-4.63653 -0.98766,-4.22817 -0.98766,-4.19321 -0.98766,-4.00371 -0.98766,-3.87349 -0.98766,-3.80523 -0.98766,-3.61155 -0.98766,-3.35149 -0.98766,-3.31279 -0.98766,-3.05807 -0.98766,-2.98739 -0.98766,-2.81265 -0.98766,-2.71321 -0.98766,-2.56607 -0.98766,-2.59819 -0.98766,-2.34554 -0.98766,-2.36172 -0.98766,-2.16305 -0.98766,-2.19135 -0.98766,-1.97975 -0.98766,-1.96129 -0.98766,-1.87982 -0.98766,-1.74887 -0.98766,-1.70759 -0.98766,-1.74384 -0.98766,-1.63128 -0.98766,-1.58904 -0.98766,-1.51927 -0.98766,-1.46669 -0.98766,-1.41212 -0.98766,-1.39412 -0.98766,-1.3794 -0.98766,-1.31142 -0.98766,-1.32635 -0.98766,-1.2788 -0.98766,-1.21807 -0.98766,-1.16744 -0.98766,-1.15317 -0.98766,-1.19183 -0.98766,-1.11931 -0.98766,-1.10997 -0.98766,-1.11169 -0.98766,-1.07675 -0.98766,-1.03508 -0.98766,-1.03202 -0.98766,-1.01681 -0.98766,-0.99031 -0.98766,-0.98609 -0.98766,-0.96631 -0.98766,-0.95475 -0.98766,-0.96534 -0.98766,-0.92365 -0.98766,-0.92461 -0.98766,-0.92403 -0.98766,-0.92197 -0.98766,-0.91575 -0.98766,-0.89568 -0.98766,-0.87059 -0.98766,-0.87256 -0.98766,-0.86821 -0.98766,-0.85332 -0.98766,-0.86116 -0.98766,-0.85709 -0.98766,-0.84206 -0.98766,-0.81919 -0.98766,-0.81928 -0.98766,-0.81713 -0.98766,-0.81765 -0.98766,-0.7998 -0.98766,-0.82273 -0.98766,-0.81109 -0.98766,-0.79643 -0.98766,-0.81481 -0.98766,-0.77935 -0.98766,-0.78865 -0.98766,-0.80508 -0.98766,-0.78284 -0.98766,-0.783661 -0.98766,-0.764948 L 99.27576,98.224343 98.2881,97.441652 97.30044,96.684648 96.31278,95.900716 95.32512,95.132257 94.33746,94.369798 93.3498,93.602914 92.36214,92.843605 91.37448,92.087359 90.38682,91.326637 89.39916,90.560602 88.4115,89.802781 87.42384,89.03836 86.43618,88.28638 85.44852,87.518031 84.46086,86.765689 83.4732,86.010079 82.48554,85.247789 81.49788,84.493186 80.51022,83.746659 79.52256,82.979409 78.5349,82.224797 77.54724,81.458029 76.55958,80.697289 75.57192,79.945205 74.58426,79.194928 73.5966,78.451179 72.60894,77.698045 71.62128,76.950064 70.63362,76.217403 69.64596,75.476676 68.6583,74.727909 67.67064,74.000441 66.68298,73.26093 65.69532,72.521926 64.70766,71.798987 Z" />
        </g>
      </g>
      <g
         id="g100"
         transform="matrix(1.1609957,0,0,-1.1609958,2087.7521,1083.7582)">
        <g
           clip-path="url(#clipPath104)"
           id="g102">
          <path
             inkscape:connector-curvature="0"
             id="path108"
             style="fill:none;stroke:#426e86;stroke-width:3.57785496;stroke-linecap:round;stroke-linejoin:round;stroke-miterlimit:10;stroke-dasharray:none;stroke-opacity:1"
             d="m 64.70766,63.567017 14.8149,11.32527 17.77788,13.861158 11.85192,9.493203 8.88894,7.400982 6.91362,6.03973 5.92596,5.46986 4.9383,4.84055 4.9383,5.17827 3.95064,4.45139 3.95064,4.79424 3.95064,5.21604 2.96298,4.24665 2.96298,4.58734 2.96298,4.98477 2.96298,5.44668 2.96298,5.98 2.96298,6.58873 2.96298,7.27057 2.96298,8.01167 2.96298,8.77935 2.96298,9.51417 3.95064,13.59648 6.91362,24.23007 2.96298,9.32823 1.97532,5.46567 1.97532,4.6941 1.97532,3.80705 0.98766,1.54399 0.98766,1.2946 0.98766,1.04087 0.98766,0.78509 0.98766,0.52948 0.98766,0.27608 0.98766,0.0267 0.98766,-0.21686 0.98766,-0.45328 0.98766,-0.68129 0.98766,-0.89992 0.98766,-1.10836 0.98766,-1.30604 1.97532,-3.16026 1.97532,-3.81497 1.97532,-4.37918 1.97532,-4.85686 2.96298,-8.00719 2.96298,-8.66446 3.95064,-12.24215 5.92596,-19.17466 20.74086,-67.77602 3.95064,-12.06627 2.96298,-8.52341 2.96298,-7.89821 2.96298,-7.1158 1.97532,-4.241568 1.97532,-3.804253 1.97532,-3.348563 1.97532,-2.886285 1.97532,-2.429025 1.97532,-1.987245 1.97532,-1.569542 1.97532,-1.182271 1.97532,-0.829464 1.97532,-0.513014 1.97532,-0.233012 1.97532,0.01184 1.97532,0.223803 1.97532,0.405742 2.96298,0.891828 2.96298,1.164136 3.95064,1.870137 3.95064,2.133063 4.9383,2.917448 6.91362,4.379495 8.88894,5.92136 10.86426,7.50839 9.8766,7.06734 8.88894,6.62694 6.91362,5.40205 6.91362,5.69795 5.92596,5.18888 4.9383,4.59161 4.9383,4.88322 4.9383,5.22348 4.9383,5.61126 3.95064,4.79437 4.9383,6.38894 4.9383,6.80509 5.92596,8.57496 7.90128,11.4894 3.95064,5.36155 2.96298,3.6679 2.96298,3.25314 1.97532,1.89085 1.97532,1.63824 1.97532,1.3629 1.97532,1.06839 1.97532,0.75867 1.97532,0.43801 1.97532,0.11081 1.97532,-0.21857 1.97532,-0.54589 0,0" />
        </g>
      </g>
    </g>
  </g>
  <g
     inkscape:groupmode="layer"
     id="layer6"
     inkscape:label="model"
     style="display:none"
     transform="translate(4.3019628e-6,7.9648689)">
    <rect
       ry="8.7739906"
       y="108.43108"
       x="176.66319"
       height="36.850761"
       width="59.774704"
       id="rect37800-0-6-9"
       style="display:inline;opacity:0.98999999;fill:none;fill-opacity:1;stroke:#e90000;stroke-width:2;stroke-linejoin:round;stroke-miterlimit:4;stroke-dasharray:none;stroke-dashoffset:0;stroke-opacity:1;filter:url(#filter39605-0-36-6)" />
  </g>
  <g
     inkscape:groupmode="layer"
     id="layer7"
     inkscape:label="uq"
     style="display:none"
     transform="translate(4.3019628e-6,7.9648689)">
    <rect
       inkscape:export-ydpi="300"
       inkscape:export-xdpi="300"
       style="display:inline;opacity:0.98999999;fill:none;fill-opacity:1;stroke:#000000;stroke-width:14.4849205;stroke-linejoin:round;stroke-miterlimit:4;stroke-dasharray:none;stroke-dashoffset:0;stroke-opacity:1;filter:url(#filter39605-0-36-6-9)"
       id="rect37800-6-3-7"
       width="560.21136"
       height="565.54407"
       x="1514.317"
       y="43.57436"
       ry="102.13858"
       transform="matrix(0.13821081,0,0,0.13793857,-41.45807,65.316475)" />
    <rect
       inkscape:export-ydpi="300"
       inkscape:export-xdpi="300"
       style="display:inline;opacity:0.98999999;fill:none;fill-opacity:1;stroke:#e90000;stroke-width:14.4849205;stroke-linejoin:round;stroke-miterlimit:4;stroke-dasharray:none;stroke-dashoffset:0;stroke-opacity:1;filter:url(#filter39605-0-36-6-9-6)"
       id="rect37800-6-3-7-7"
       width="560.21136"
       height="565.54407"
       x="1514.317"
       y="43.57436"
       ry="102.13858"
       transform="matrix(0.13821081,0,0,0.13793857,-41.45807,65.316475)" />
  </g>
  <g
     inkscape:groupmode="layer"
     id="layer2"
     inkscape:label="parameters"
     style="display:none"
     transform="translate(4.3019628e-6,7.9648689)">
    <rect
       transform="translate(-187.47445,-286.22061)"
       style="color:#000000;clip-rule:nonzero;display:inline;overflow:visible;visibility:visible;opacity:1;isolation:auto;mix-blend-mode:normal;color-interpolation:sRGB;color-interpolation-filters:linearRGB;solid-color:#000000;solid-opacity:1;fill:none;fill-opacity:1;fill-rule:nonzero;stroke:#e90000;stroke-width:2;stroke-linecap:square;stroke-linejoin:miter;stroke-miterlimit:10;stroke-dasharray:none;stroke-dashoffset:0;stroke-opacity:1;color-rendering:auto;image-rendering:auto;shape-rendering:auto;text-rendering:auto;enable-background:accumulate"
       id="rect5764"
       width="133.66971"
       height="212.51979"
       x="189.68602"
       y="279.25574"
       ry="11.264288" />
  </g>
</svg>
